<svg width="1125" height="1125" viewBox="0 0 1125 1125" xmlns="http://www.w3.org/2000/svg">
  <path d="M7571.81 17844.6c57.38 8.6 109.35 16.1 158.89 23 12.05 1.7 21.46-1.9 28.81-10.9 9.6-11.9 15.88-25.1 18.67-39.3l.55-2.8c3.87-19.7 7.53-38.2 5.38-57.3-1.37-12.1-5.93-20.8-13.58-25.7-7.75-5-18.77-5.8-29.47-2.3l-31.61 10.4 19.51-27c1.95-2.7 3.68-5.3 5.37-7.9 3.42-5.3 6.96-10.7 11.73-15.7 10.65-11.1 24.66-16.6 38.73-16.6 13.32 0 26.69 4.9 37.35 15 12.9 12.2 20.11 28 22.05 48.4 3.69 39.2-3.96 77.9-23.42 118.4-10.69 22.2-26.25 40.1-41.67 56 3.82 6.6 6.55 13.4 9.21 20l1.38 3.4c13.86 34 19.33 70.2 16.25 107.6-1.37 16.7-4.83 33.3-10.55 50.8-5.65 17.2-13.28 34.6-30.69 45.5-26.08 16.2-47.23 15.3-68.57-2.9-13.11-11.2-20.25-27.4-21.23-48l-1.22-25.6 19.13 17c8.3 7.3 17.02 10.2 25.27 8.4 8.78-1.9 16.61-9.1 20.94-19.1 8.73-20.2 13.1-41.8 12.99-64.2-.11-20.3-5.27-36.9-15.79-50.8-3.27-4.4-5.75-6.5-8.31-7.1-7.29-1.8-15.03-3.3-23-4.5l-59.87-8.7c-28.53-4.2-57.06-8.4-85.57-12.7 4.23-24.8 8.23-49.8 11.91-74.8zm-231.45 1192c10.74 5.7 20.81 5.5 30.81-.5 13.08-7.8 23.5-18.1 30.99-30.5l1.46-2.4c10.36-17.2 20.14-33.4 24.65-52 2.87-11.9 1.53-21.6-3.97-28.8-5.58-7.3-15.64-11.9-26.9-12.3l-33.27-1 27.57-18.7c2.75-1.8 5.29-3.7 7.76-5.6 5.02-3.8 10.2-7.7 16.38-10.7 13.8-6.8 28.87-7.2 42.1-2.4 12.51 4.5 23.37 13.8 29.95 26.9 7.97 15.8 9.32 33.2 4.15 53-9.92 38.1-30.35 71.9-62.47 103.2-17.66 17.3-38.39 28.7-58.33 38.5 1.35 7.4 1.59 14.7 1.83 21.8l.13 3.7c1.4 36.7-5.85 72.6-21.55 106.7-7 15.3-15.92 29.7-27.27 44.1-11.2 14.3-24.34 28.1-44.41 32.3-30.07 6.4-49.63-1.7-63.44-26.2-8.47-15-9.66-32.6-3.53-52.4l7.59-24.4 12.18 22.5c5.29 9.7 12.49 15.5 20.86 16.5 8.92 1.2 18.72-2.8 26.22-10.7 15.1-16 26.6-34.8 34.16-55.9 6.85-19.2 7.69-36.6 2.56-53.2-1.6-5.2-3.21-8-5.4-9.5-6.24-4.2-13-8.2-20.09-12-17.73-9.7-35.49-19.2-53.25-28.8-24.78-13.3-49.55-26.6-74.26-40.1 12.5-21.9 24.82-44 36.84-66.3 50.38 27.4 96.2 52 139.95 75.2m-766.62 965c8.16 9 17.67 12.3 29.12 10.1 14.97-2.9 28.28-9 39.55-18.1l2.2-1.8c15.6-12.6 30.34-24.4 40.94-40.4 6.77-10.2 8.83-19.8 6.13-28.4-2.74-8.8-10.63-16.6-21.08-20.8l-30.92-12.3 32.29-8.1c3.22-.8 6.26-1.8 9.23-2.7 6-1.8 12.21-3.7 19.05-4.4 15.29-1.7 29.6 3.1 40.38 12.1 10.2 8.6 17.24 21 18.95 35.5 2.07 17.6-2.59 34.4-14.25 51.3-22.34 32.4-53.08 57.1-94 75.6-22.48 10.2-45.88 13.8-67.95 16.2-1.28 7.4-3.55 14.4-5.77 21.2l-1.13 3.4c-11.23 35-30.32 66.3-56.74 92.9-11.78 12-25.1 22.5-40.7 32.1-15.41 9.6-32.47 18.1-52.78 15.2-30.43-4.3-46.05-18.6-50.66-46.3-2.83-17 2.09-34 14.6-50.4l15.47-20.4 3.77 25.3c1.64 11 6.45 18.8 13.94 22.7 7.98 4.2 18.57 3.7 28.33-1.2 19.65-9.8 36.89-23.6 51.22-40.8 12.97-15.7 19.71-31.7 20.58-49.1.27-5.4-.28-8.6-1.83-10.7-4.43-6.1-9.4-12.2-14.75-18.3-13.38-15.1-26.8-30.1-40.22-45.2-18.03-20.2-36.05-40.4-53.99-60.8 19.23-16.4 38.24-33 57.08-49.8 37.26 42 71.33 80.2 103.94 116.4m-1050.42 644.5c4.58 11.3 12.39 17.6 23.92 19.5 15.06 2.4 29.65 1.2 43.35-3.5l2.67-.9c18.96-6.5 36.86-12.6 52.29-24 9.85-7.2 15.05-15.5 15.48-24.6.43-9.2-4.33-19.2-12.72-26.7l-24.83-22.2 33.12 3.5c3.3.3 6.47.5 9.57.6 6.27.4 12.75.7 19.43 2.3 14.93 3.7 26.76 13.1 33.79 25.3 6.66 11.5 9.03 25.6 5.66 39.8-4.08 17.3-14.2 31.5-30.93 43.3-32.06 22.8-69.41 35.5-114.18 38.9-24.61 1.9-47.85-2.7-69.38-8-3.76 6.5-8.28 12.3-12.67 17.9l-2.26 2.9c-22.51 29-51.14 51.9-85.1 67.9-15.14 7.2-31.24 12.5-49.22 16.2-17.75 3.8-36.68 5.9-54.77-3.8-27.13-14.4-36.92-33.2-31.77-60.8 3.16-17 13.58-31.2 30.97-42.4l21.49-13.8-5.1 25c-2.21 10.9-.38 19.9 5.33 26.1 6.08 6.6 16.18 9.8 27.02 8.6 21.84-2.5 42.73-9.6 62.11-20.9 17.54-10.2 29.35-23 36.12-39 2.11-5 2.69-8.2 1.96-10.8-2.09-7.2-4.66-14.6-7.63-22.1-7.41-18.8-14.88-37.5-22.34-56.3-9.3-23.3-18.57-46.7-27.78-70.1 23.68-8.9 47.26-18 70.69-27.3 19.78 50.1 38.08 95.9 55.71 139.4m-1207.52 246.4c.45 12.2 5.61 20.8 15.82 26.5 13.33 7.4 27.44 11.3 41.92 11.6h2.82c20.03.4 38.95.8 57.34-4.6 11.74-3.5 19.46-9.5 22.96-17.9 3.56-8.5 2.49-19.5-2.83-29.4l-15.73-29.3 29.94 14.5c2.99 1.5 5.92 2.7 8.77 3.9 5.78 2.5 11.75 5 17.46 8.9 12.77 8.5 20.69 21.4 23.13 35.2 2.31 13.1-.28 27.2-8.32 39.4-9.73 14.8-24.08 24.7-43.87 30.1-37.92 10.5-77.37 9.7-120.6-2.5-23.76-6.7-44.04-18.9-62.43-31.3-5.79 4.9-12.01 8.8-18.05 12.5l-3.11 2c-31.08 19.6-65.8 31.2-103.19 34.7-16.68 1.5-33.62 1-51.81-1.6-17.95-2.6-36.46-7-50.17-22.3-20.54-22.9-23.32-43.9-9.04-68 8.77-14.9 23.44-24.7 43.6-29.3l24.93-5.6-13.36 21.8c-5.8 9.4-7.15 18.5-3.92 26.3 3.45 8.3 11.84 14.8 22.45 17.3 21.39 5.1 43.43 5.7 65.51 1.7 19.98-3.7 35.45-11.6 47.3-24.4 3.69-4 5.34-6.8 5.51-9.4.5-7.5.64-15.4.41-23.5-.55-20.1-1.15-40.3-1.76-60.4-.7-23.6-1.36-47.2-1.98-70.7 25.32-.3 50.59-.7 75.77-1.5 1.42 52 2.91 99.8 4.53 145.3m-1218.98-181.4c-3.73 11.6-1.84 21.5 5.81 30.3 10 11.5 21.93 20 35.44 25.2l2.63 1c18.68 7.2 36.33 14.1 55.47 15.3 12.21.7 21.52-2.3 27.67-8.9 6.26-6.8 9.02-17.5 7.41-28.7l-4.75-32.9 23.16 23.9c2.32 2.4 4.64 4.5 6.91 6.7 4.59 4.2 9.33 8.7 13.39 14.2 9.06 12.4 12.12 27.2 9.67 41.1-2.31 13.1-9.55 25.4-21.29 34.1-14.21 10.6-31.07 15-51.52 13.3-39.21-3.1-76-17.4-112.47-43.6-20.05-14.4-34.93-32.8-47.96-50.7-7.12 2.6-14.28 4.1-21.25 5.6l-3.59.7c-35.89 7.8-72.51 6.9-108.84-2.7-16.2-4.2-31.94-10.5-48.13-19.2-16-8.5-31.86-19.1-39.51-38.1-11.49-28.5-6.92-49.2 14.76-67 13.32-11 30.48-15.2 50.98-12.6l25.35 3.2-20 15.9c-8.68 6.9-13.07 15-12.7 23.5.4 9 6.08 17.9 15.18 23.9 18.36 12.1 38.88 20.2 61 23.9 20.01 3.5 37.28 1.3 52.78-6.7 4.83-2.4 7.34-4.5 8.4-6.9 3.03-6.9 5.85-14.3 8.4-21.9 6.38-19.1 12.7-38.3 19.03-57.4 6.7-20.3 13.46-40.6 20.22-60.8 23.79 8.4 47.69 16.5 71.72 24.4-15.62 46.9-29.92 90.4-43.37 131.9m-1083.42-587.4c-7.47 9.6-9.07 19.5-4.89 30.4 5.46 14.3 13.77 26.3 24.68 35.8l2.12 1.9c15.09 13.2 29.34 25.6 46.91 33.3 11.22 4.9 20.99 5.3 29.05 1.1 8.2-4.2 14.45-13.3 16.75-24.4l6.8-32.5 13.6 30.3c1.36 3.1 2.8 5.9 4.2 8.7 2.85 5.6 5.8 11.4 7.71 18 4.26 14.7 2.09 29.6-4.95 41.8-6.66 11.6-17.67 20.7-31.69 24.9-16.98 5.1-34.31 3.4-52.96-5.2-35.78-16.4-65.47-42.3-90.78-79.4-13.92-20.4-21.6-42.8-27.71-64.1-7.58 0-14.83-1-21.88-2l-3.63-.5c-36.38-5-70.48-18.4-101.35-39.8-13.78-9.5-26.42-20.8-38.68-34.5-12.1-13.5-23.4-28.8-24.08-49.3-1.04-30.8 10.32-48.6 36.8-58 16.27-5.7 33.83-3.8 52.2 5.7l22.72 11.7-24.24 8.1c-10.51 3.5-17.4 9.6-19.94 17.6-2.69 8.6-.42 19 6.08 27.7 13.11 17.7 29.64 32.3 49.13 43.4 17.63 10 34.61 13.9 51.9 11.7 5.38-.7 8.45-1.7 10.27-3.7 5.19-5.4 10.37-11.3 15.38-17.6 12.53-15.8 25.03-31.7 37.52-47.5 12.32-15.6 24.69-31.2 37.05-46.7 19.46 16 39.16 31.9 58.99 47.5-29.64 37.4-57.05 72.2-83.08 105.6m-817.17-922.5c-10.3 6.4-15.21 15.2-15.01 26.9.26 15.2 3.95 29.4 10.94 42.1l1.37 2.5c9.66 17.5 18.79 34.1 32.68 47.3 8.87 8.4 17.93 12.1 26.93 11 9.14-1.2 18.14-7.6 24.07-17.2l17.53-28.3 2.39 33.2c.24 3.3.62 6.5 1 9.6.76 6.2 1.55 12.6 1.09 19.5-1.05 15.3-8.19 28.6-18.97 37.6-10.2 8.6-23.65 13.4-38.28 12.5-17.7-1-33.4-8.5-48.01-22.9-28.01-27.6-47.03-62.2-58.14-105.7-6.1-23.9-5.66-47.6-4.1-69.7-7.14-2.6-13.6-6-19.88-9.4l-3.24-1.7c-32.47-17.1-59.94-41.4-81.64-72-9.68-13.7-17.7-28.6-24.54-45.7-6.748-16.8-12.119-35.1-5.752-54.6 9.522-29.2 26.302-42.1 54.392-41.8 17.25.2 33.11 7.9 47.13 23.1l17.34 18.8-25.54-.7c-11.08-.3-19.64 3.1-24.78 9.8-5.47 7.1-6.88 17.6-3.76 28.1 6.28 21.1 16.82 40.4 31.34 57.5 13.13 15.5 27.77 24.9 44.75 28.8 5.28 1.2 8.54 1.3 10.91.1 6.73-3.3 13.63-7.1 20.49-11.4 17.19-10.5 34.34-21.1 51.5-31.7 15.78-9.8 31.59-19.5 47.4-29.2 12.81 21.8 25.83 43.4 39.1 64.9-39.31 24.2-75.85 46.9-110.71 68.7m-452.367-1146.4c-11.894 2.5-19.511 9.1-23.312 20.1-4.973 14.5-6.356 29-4.117 43.4l.437 2.7c3.086 19.8 5.996 38.5 14.524 55.7 5.449 11 12.699 17.5 21.554 19.5 8.996 2 19.641-.9 28.489-7.9l26.152-20.6-9.117 32c-.907 3.2-1.625 6.3-2.321 9.4-1.414 6.1-2.875 12.4-5.664 18.7-6.222 14.1-17.48 24.1-30.703 28.9-12.512 4.5-26.789 4.4-40.234-1.4-16.285-7-28.481-19.4-37.281-37.9-16.875-35.6-22.915-74.6-18.473-119.2 2.437-24.6 10.957-46.7 19.988-67-5.832-4.8-10.722-10.3-15.476-15.6l-2.454-2.7c-24.66-27.2-42.187-59.4-52.093-95.6-4.422-16.1-6.852-32.9-7.446-51.3-.582-18.1.622-37.1 13.27-53.3 18.949-24.2 39.129-30.5 65.426-20.7 16.152 6.1 28.394 18.8 36.379 37.9l9.875 23.5-23.77-9.3c-10.312-4.1-19.508-3.8-26.629.7-7.586 4.8-12.5 14.2-13.148 25.1-1.301 22 1.984 43.8 9.765 64.8 7.043 19.1 17.579 32.9 32.211 42.4 4.551 2.9 7.61 4 10.227 3.8 7.461-.9 15.25-2.1 23.144-3.7q29.636-6.15 59.254-12.3c17.442-3.6 34.895-7.1 52.34-10.7 4.5 24.9 9.227 49.7 14.262 74.4-44.285 9.1-85.57 17.8-125.059 26.2m-33-1232c-12.05-1.6-21.457 1.9-28.804 11-9.606 11.9-15.887 25.1-18.676 39.3l-.543 2.7c-3.871 19.7-7.531 38.3-5.387 57.3 1.367 12.2 5.938 20.8 13.574 25.7 7.758 5 18.778 5.9 29.473 2.4l31.621-10.5-19.519 27c-1.95 2.7-3.68 5.4-5.368 8-3.421 5.2-6.957 10.7-11.726 15.6-10.66 11.1-24.664 16.7-38.738 16.7-13.313 0-26.692-5-37.344-15.1-12.906-12.1-20.117-28-22.047-48.4-3.699-39.1 3.957-77.8 23.41-118.3 10.695-22.3 26.254-40.1 41.676-56.1-3.824-6.5-6.559-13.3-9.211-19.9l-1.375-3.4c-13.863-34-19.336-70.2-16.254-107.7 1.371-16.7 4.824-33.2 10.551-50.7 5.652-17.2 13.281-34.7 30.691-45.5 26.082-16.3 47.223-15.4 68.563 2.9 13.105 11.2 20.254 27.3 21.238 48l1.219 25.5-19.133-16.9c-8.297-7.4-17.02-10.3-25.27-8.5-8.781 2-16.609 9.1-20.941 19.2-8.73 20.1-13.098 41.7-12.984 64.2.101 20.3 5.265 36.9 15.781 50.8 3.273 4.3 5.754 6.4 8.312 7.1 7.289 1.7 15.032 3.2 23.004 4.4 19.949 3 39.907 5.9 59.864 8.8l53.011 7.8c-4.261 24.9-8.316 49.8-12.031 74.8-44.789-6.6-86.594-12.6-126.637-18.2m390.347-1168.9c-10.75-5.7-20.82-5.6-30.82.4-13.08 7.9-23.5 18.1-30.98 30.6l-1.46 2.4c-10.36 17.1-20.15 33.3-24.65 51.9-2.88 11.9-1.54 21.6 3.96 28.8 5.59 7.4 15.65 11.9 26.9 12.3l33.27 1-27.56 18.7c-2.75 1.9-5.29 3.8-7.77 5.7-5.01 3.7-10.2 7.6-16.37 10.7-13.81 6.7-28.878 7.2-42.101 2.4-12.512-4.6-23.375-13.9-29.953-26.9-7.965-15.9-9.324-33.2-4.153-53.1 9.922-38.1 30.352-71.8 62.477-103.2 17.65-17.2 38.38-28.7 58.33-38.4-1.35-7.5-1.6-14.8-1.83-21.9l-.13-3.7c-1.4-36.7 5.85-72.6 21.54-106.7 7-15.2 15.92-29.6 27.27-44 11.21-14.3 24.34-28.1 44.41-32.3 30.07-6.4 49.63 1.7 63.44 26.1 8.48 15.1 9.67 32.7 3.53 52.4l-7.58 24.4-12.19-22.4c-5.28-9.8-12.48-15.5-20.86-16.6-8.92-1.2-18.72 2.9-26.21 10.8-15.11 16-26.6 34.8-34.17 55.9-6.85 19.1-7.68 36.5-2.55 53.2 1.59 5.1 3.21 8 5.39 9.4 6.24 4.2 13 8.3 20.09 12.1 17.74 9.6 35.5 19.2 53.26 28.7 16.24 8.8 32.45 17.6 48.68 26.3-12.6 21.9-24.91 44-37.03 66.2-40.36-21.9-78.05-42.1-114.18-61.2m766.61-965c-8.15-9-17.66-12.3-29.12-10.1-14.97 2.9-28.28 9-39.55 18.1l-2.2 1.8c-15.6 12.5-30.33 24.4-40.94 40.4-6.77 10.2-8.83 19.7-6.12 28.4 2.74 8.8 10.62 16.5 21.08 20.7l30.91 12.4-32.29 8.1c-3.22.8-6.26 1.7-9.22 2.6-6.01 1.9-12.22 3.8-19.06 4.5-15.28 1.6-29.6-3.1-40.38-12.1-10.2-8.6-17.23-21-18.94-35.6-2.07-17.6 2.59-34.4 14.24-51.2 22.34-32.4 53.09-57.2 94-75.6 22.49-10.2 45.88-13.9 67.95-16.2 1.29-7.5 3.56-14.4 5.77-21.2l1.13-3.5c11.24-35 30.33-66.2 56.75-92.9 11.78-11.9 25.09-22.4 40.7-32.1 15.41-9.6 32.47-18 52.77-15.1 30.44 4.3 46.05 18.6 50.66 46.3 2.83 17-2.08 33.9-14.6 50.4l-15.47 20.3-3.77-25.2c-1.63-11-6.44-18.8-13.94-22.7-7.98-4.2-18.57-3.8-28.32 1.1-19.66 9.9-36.89 23.6-51.23 40.9-12.97 15.6-19.7 31.7-20.58 49-.27 5.5.28 8.7 1.83 10.8 4.44 6.1 9.4 12.2 14.75 18.2 13.38 15.1 26.8 30.2 40.22 45.2 13.26 14.9 26.47 29.8 39.68 44.7-19.33 16.3-38.5 32.7-57.47 49.4-31.54-35.5-60.99-68.5-89.24-99.8m1050.42-644.6c-4.58-11.2-12.38-17.6-23.91-19.4-15.06-2.4-29.65-1.2-43.35 3.5l-2.67.9c-18.96 6.4-36.87 12.6-52.3 23.9-9.84 7.3-15.05 15.6-15.47 24.7-.44 9.2 4.33 19.1 12.72 26.6l24.82 22.2-33.11-3.4c-3.31-.3-6.48-.5-9.58-.7-6.27-.3-12.75-.7-19.43-2.3-14.92-3.7-26.75-13-33.79-25.2-6.66-11.5-9.02-25.6-5.65-39.9 4.08-17.2 14.19-31.4 30.92-43.3 32.07-22.8 69.41-35.5 114.19-38.9 24.6-1.8 47.85 2.7 69.37 8.1 3.77-6.6 8.28-12.4 12.67-18l2.26-2.8c22.52-29.1 51.15-51.9 85.1-68 15.14-7.1 31.24-12.4 49.22-16.2 17.76-3.7 36.68-5.8 54.78 3.8 27.12 14.5 36.91 33.3 31.77 60.9-3.17 16.9-13.59 31.2-30.97 42.4l-21.5 13.8 5.1-25.1c2.22-10.8.38-19.8-5.33-26.1-6.08-6.6-16.18-9.8-27.02-8.5-21.83 2.5-42.73 9.5-62.11 20.8-17.53 10.3-29.35 23-36.12 39.1-2.1 5-2.69 8.2-1.95 10.7 2.09 7.2 4.66 14.7 7.62 22.2 7.42 18.7 14.88 37.5 22.34 56.2 7.87 19.8 15.68 39.5 23.48 59.3-23.77 8.7-47.38 17.6-70.9 26.8-18.04-45.6-34.92-87.9-51.2-128.1m1212.02-102c-1.4-51.6-2.88-99.1-4.5-144.4-.45-12.1-5.61-20.8-15.81-26.4-13.34-7.4-27.45-11.3-41.93-11.6l-2.82-.1c-20.03-.4-38.94-.7-57.34 4.7-11.73 3.4-19.46 9.4-22.96 17.8-3.55 8.5-2.49 19.5 2.83 29.4l15.74 29.4-29.95-14.6c-2.99-1.4-5.91-2.7-8.77-3.9-5.77-2.4-11.75-5-17.46-8.8-12.76-8.6-20.68-21.4-23.13-35.3-2.31-13.1.28-27.1 8.32-39.4 9.74-14.8 24.09-24.6 43.87-30.1 37.93-10.4 77.37-9.6 120.61 2.5 23.75 6.7 44.04 18.9 62.43 31.3 5.79-4.9 12-8.7 18.04-12.5l3.11-1.9c31.08-19.6 65.8-31.3 103.2-34.7 16.67-1.6 33.62-1.1 51.8 1.5 17.96 2.6 36.47 7.1 50.17 22.4 20.54 22.8 23.32 43.8 9.05 68-8.77 14.8-23.45 24.7-43.61 29.2l-24.92 5.7 13.36-21.8c5.79-9.5 7.15-18.6 3.91-26.4-3.44-8.3-11.84-14.7-22.45-17.3-21.39-5.1-43.42-5.6-65.5-1.6-19.98 3.6-35.46 11.6-47.31 24.4-3.69 3.9-5.33 6.8-5.51 9.4-.49 7.5-.63 15.4-.41 23.4.55 20.2 1.16 40.3 1.76 60.5.7 23.4 1.35 46.9 1.97 70.3h-1.95c-24.68 0-49.27.4-73.84.9m1214.48 37c3.74-11.5 1.85-21.4-5.81-30.2-10-11.5-21.92-20-35.43-25.2l-2.64-1.1c-18.68-7.2-36.33-14-55.47-15.2-12.21-.8-21.52 2.2-27.67 8.9-6.25 6.8-9.01 17.5-7.41 28.6l4.76 33-23.17-23.9c-2.31-2.4-4.64-4.6-6.9-6.7-4.59-4.3-9.34-8.7-13.4-14.3-9.05-12.4-12.11-27.2-9.67-41 2.31-13.1 9.55-25.4 21.29-34.2 14.22-10.6 31.07-14.9 51.53-13.3 39.21 3.2 75.99 17.4 112.47 43.6 20.04 14.4 34.93 32.8 47.96 50.8 7.12-2.6 14.28-4.1 21.25-5.6l3.58-.8c35.9-7.7 72.52-6.8 108.84 2.7 16.2 4.3 31.95 10.5 48.14 19.2 16 8.6 31.85 19.1 39.51 38.1 11.48 28.6 6.92 49.2-14.77 67.1-13.32 10.9-30.47 15.1-50.98 12.5l-25.35-3.2 20.01-15.9c8.68-6.9 13.06-15 12.69-23.4-.4-9-6.07-18-15.18-24-18.35-12.1-38.87-20.1-60.99-23.9-20.02-3.4-37.28-1.2-52.79 6.7-4.82 2.5-7.33 4.6-8.39 7-3.03 6.8-5.86 14.2-8.4 21.8-6.38 19.2-12.71 38.3-19.04 57.5-7.86 23.8-15.76 47.6-23.72 71.3-23.71-8.6-47.53-17-71.49-25.2 16.92-50.7 32.25-97.2 46.64-141.7m1083.42 587.5c7.47-9.6 9.07-19.6 4.89-30.5-5.46-14.2-13.76-26.3-24.67-35.8l-2.13-1.9c-15.08-13.1-29.34-25.6-46.91-33.3-11.21-4.9-20.98-5.2-29.05-1-8.19 4.2-14.45 13.3-16.75 24.3l-6.8 32.6-13.59-30.4c-1.36-3-2.8-5.9-4.21-8.6-2.85-5.6-5.79-11.4-7.7-18-4.27-14.8-2.09-29.7 4.94-41.9 6.66-11.5 17.67-20.6 31.69-24.8 16.99-5.1 34.31-3.4 52.97 5.1 35.77 16.4 65.46 42.4 90.78 79.5 13.91 20.3 21.6 42.7 27.7 64.1 7.59-.1 14.83 1 21.88 2l3.63.5c36.38 5 70.48 18.4 101.36 39.7 13.77 9.6 26.41 20.9 38.67 34.5 12.1 13.5 23.4 28.9 24.08 49.4 1.04 30.7-10.31 48.6-36.79 57.9-16.27 5.7-33.84 3.9-52.21-5.6l-22.71-11.7 24.23-8.1c10.51-3.5 17.4-9.6 19.94-17.7 2.7-8.6.43-18.9-6.08-27.7-13.11-17.6-29.63-32.2-49.12-43.3-17.64-10.1-34.62-13.9-51.9-11.8-5.38.7-8.45 1.8-10.27 3.7-5.2 5.4-10.37 11.4-15.38 17.7-12.54 15.8-25.03 31.6-37.53 47.4-16.77 21.3-33.56 42.5-50.43 63.7-19.35-16.3-38.89-32.3-58.61-48.1 34.77-43.7 66.27-83.7 96.08-121.9m817.17 922.5c10.3-6.5 15.21-15.3 15.01-26.9-.26-15.3-3.94-29.5-10.94-42.1l-1.36-2.5c-9.67-17.5-18.8-34.1-32.69-47.3-8.86-8.5-17.92-12.2-26.93-11-9.14 1.2-18.13 7.6-24.07 17.2l-17.53 28.2-2.38-33.2c-.24-3.3-.63-6.4-1.01-9.5-.76-6.2-1.55-12.7-1.08-19.5 1.04-15.4 8.19-28.6 18.97-37.7 10.2-8.6 23.65-13.3 38.27-12.5 17.7 1 33.41 8.5 48.01 22.9 28.02 27.7 47.03 62.2 58.14 105.7 6.1 24 5.66 47.6 4.1 69.8 7.14 2.5 13.6 6 19.88 9.3l3.24 1.7c32.48 17.2 59.95 41.4 81.65 72.1 9.68 13.6 17.7 28.6 24.53 45.6 6.75 16.8 12.13 35.1 5.76 54.6-9.53 29.2-26.31 42.1-54.39 41.9-17.25-.2-33.11-8-47.14-23.2l-17.34-18.7 25.54.6c11.09.3 19.65-3 24.78-9.7 5.47-7.2 6.88-17.7 3.77-28.1-6.29-21.1-16.83-40.5-31.34-57.6-13.13-15.5-27.77-24.9-44.76-28.8-5.28-1.2-8.54-1.2-10.9 0-6.73 3.3-13.63 7.1-20.5 11.3-17.18 10.6-34.34 21.2-51.49 31.8-23.93 14.8-47.87 29.5-71.86 44.2-12.7-21.8-25.59-43.6-38.76-65.1 48.77-29.9 92.92-57.3 134.82-83.5m576.65 1388.4c-18.95 24.2-39.13 30.6-65.42 20.7-16.16-6-28.4-18.8-36.39-37.8l-9.87-23.6 23.77 9.4c10.31 4 19.51 3.8 26.63-.7 7.58-4.9 12.5-14.3 13.14-25.2 1.31-21.9-1.98-43.7-9.76-64.7-7.04-19.1-17.58-32.9-32.21-42.4-4.55-3-7.61-4.1-10.23-3.8-7.46.8-15.25 2-23.14 3.7-19.76 4-39.51 8.1-59.26 12.2-28.14 5.8-56.27 11.7-84.44 17.3-4.45-24.9-9.27-49.7-14.26-74.4 56.84-11.6 108.25-22.3 157.16-32.7 11.9-2.6 19.51-9.2 23.31-20.2 4.97-14.4 6.36-29 4.12-43.3l-.44-2.8c-3.08-19.8-5.99-38.5-14.52-55.6-5.45-11-12.7-17.6-21.56-19.6-8.99-2-19.64 1-28.48 7.9l-26.16 20.6 9.12-32c.91-3.2 1.62-6.3 2.32-9.3 1.42-6.1 2.88-12.5 5.66-18.7 6.23-14.1 17.49-24.1 30.71-28.9 12.51-4.6 26.79-4.5 40.24 1.3 16.28 7 28.47 19.5 37.28 38 16.87 35.5 22.91 74.5 18.47 119.2-2.44 24.6-10.96 46.6-19.99 66.9 5.83 4.9 10.72 10.3 15.48 15.6l2.45 2.7c24.66 27.3 42.19 59.4 52.09 95.6 4.42 16.2 6.85 33 7.44 51.3.59 18.2-.61 37.2-13.26 53.3m-214.04 390.3c57.99-1.3 110.49-2.7 160.49-4.3 12.16-.4 20.82-5.5 26.52-15.7 7.45-13.3 11.39-27.4 11.73-41.9l.06-2.8c.48-20 .93-39-4.42-57.4-3.41-11.7-9.38-19.5-17.74-23-8.5-3.6-19.5-2.6-29.44 2.7l-29.39 15.6 14.65-29.8c1.46-3 2.71-6 3.93-8.8 2.48-5.8 5.04-11.7 8.9-17.4 8.62-12.8 21.48-20.6 35.34-23 13.13-2.3 27.16.4 39.36 8.4 14.78 9.8 24.58 24.2 29.96 44 10.3 38 9.33 77.4-2.97 120.6-6.76 23.7-19.06 44-31.54 62.3 4.88 5.8 8.72 12.1 12.46 18.1l1.93 3.1c19.45 31.2 30.99 66 34.31 103.4 1.48 16.7.9 33.6-1.77 51.8-2.64 17.9-7.2 36.4-22.51 50-22.94 20.5-43.94 23.2-68.06 8.8-14.83-8.8-24.61-23.5-29.09-43.7l-5.54-24.9 21.73 13.4c9.43 5.9 18.52 7.2 26.33 4 8.33-3.4 14.83-11.7 17.4-22.4 5.17-21.3 5.81-43.3 1.88-65.4-3.55-20-11.46-35.5-24.19-47.4-3.95-3.7-6.76-5.4-9.38-5.6-7.49-.5-15.38-.7-23.43-.5l-60.49 1.5c-29.01.8-58.02 1.5-87.04 2.2-.01-25.4-.4-50.6-.96-75.8.33-.1.66-.1.98-.1m-25.58 1214c11.57 3.8 21.46 1.9 30.3-5.7 11.55-10 20.08-21.9 25.34-35.4l1.03-2.6c7.3-18.6 14.19-36.3 15.46-55.4.82-12.2-2.15-21.5-8.8-27.7-6.75-6.3-17.44-9.1-28.59-7.5l-32.96 4.6 23.99-23.1c2.4-2.3 4.57-4.6 6.69-6.8 4.3-4.6 8.75-9.3 14.32-13.4 12.46-9 27.23-12 41.08-9.5 13.1 2.4 25.38 9.6 34.09 21.4 10.54 14.3 14.82 31.1 13.1 51.6-3.31 39.2-17.71 75.9-44.03 112.3-14.47 20-32.95 34.8-50.95 47.8 2.59 7.1 4.08 14.3 5.52 21.2l.75 3.6c7.61 36 6.57 72.6-3.1 108.9-4.31 16.1-10.66 31.9-19.38 48-8.63 16-19.23 31.8-38.29 39.4-28.55 11.4-49.2 6.7-66.96-15-10.91-13.4-15.07-30.6-12.38-51.1l3.33-25.3 15.82 20.1c6.86 8.7 14.93 13.1 23.37 12.7 8.99-.3 17.96-6 24-15 12.17-18.3 20.31-38.8 24.17-60.9 3.51-20 1.37-37.3-6.51-52.9-2.45-4.8-4.52-7.3-6.93-8.4-6.85-3-14.21-5.9-21.84-8.5-19.11-6.4-38.24-12.8-57.36-19.2-26.96-9-53.9-18.1-80.8-27.2 8.58-23.8 16.97-47.6 25.04-71.6 54.62 18.5 104.2 35.1 151.48 50.6m-591.52 1081.2c9.58 7.5 19.5 9.1 30.42 5 14.26-5.4 26.34-13.7 35.9-24.6l1.87-2.1c13.24-15 25.74-29.2 33.48-46.8 4.94-11.2 5.34-20.9 1.2-29-4.19-8.2-13.28-14.5-24.29-16.9l-32.56-6.9 30.44-13.5c3.04-1.3 5.87-2.7 8.64-4.1 5.6-2.9 11.4-5.8 18.02-7.7 14.79-4.2 29.69-1.9 41.85 5.1 11.51 6.7 20.55 17.8 24.71 31.8 5.03 17 3.29 34.3-5.33 53-16.51 35.7-42.61 65.3-79.79 90.4-20.43 13.9-42.86 21.5-64.21 27.5 0 7.6-1.06 14.8-2.09 21.9l-.52 3.6c-5.13 36.4-18.63 70.4-40.14 101.2-9.58 13.7-20.92 26.3-34.65 38.5-13.56 12.1-28.94 23.3-49.43 23.9-30.73.9-48.54-10.5-57.79-37-5.68-16.3-3.72-33.8 5.81-52.2l11.8-22.6 8.01 24.2c3.47 10.6 9.54 17.5 17.59 20 8.57 2.8 18.93.5 27.71-5.9 17.7-13.1 32.35-29.6 43.54-49 10.13-17.6 14.04-34.6 11.94-51.8-.65-5.4-1.73-8.5-3.62-10.3-5.41-5.3-11.33-10.5-17.63-15.5-15.75-12.6-31.54-25.1-47.32-37.7-21.72-17.3-43.42-34.5-65.05-51.9 16.18-19.4 32.12-39 47.87-58.8 44.43 35.6 84.92 67.7 123.62 98.2m-925.63 813.6c6.43 10.3 15.2 15.3 26.87 15.1 15.25-.2 29.43-3.8 42.13-10.8l2.48-1.3c17.58-9.6 34.19-18.7 47.46-32.5 8.47-8.9 12.19-17.9 11.07-26.9-1.14-9.1-7.52-18.2-17.07-24.1l-28.23-17.7 33.21-2.2c3.32-.3 6.47-.6 9.55-1 6.23-.7 12.68-1.5 19.54-1 15.34 1.1 28.59 8.3 37.59 19.1 8.52 10.2 13.24 23.7 12.34 38.3-1.08 17.7-8.64 33.4-23.11 48-27.73 27.9-62.37 46.7-105.92 57.7-23.93 6-47.61 5.5-69.73 3.8-2.6 7.1-6.07 13.6-9.45 19.9l-1.73 3.2c-17.26 32.4-41.59 59.8-72.33 81.4-13.7 9.6-28.67 17.6-45.74 24.3-16.87 6.7-35.16 12-54.63 5.6-29.18-9.7-42.02-26.5-41.64-54.6.23-17.2 8.08-33 23.31-47l18.84-17.3-.78 25.6c-.34 11 3.01 19.6 9.69 24.8 7.12 5.5 17.62 6.9 28.09 3.8 21.09-6.2 40.49-16.6 57.66-31.1 15.54-13.1 25.01-27.7 28.96-44.6 1.22-5.3 1.25-8.6.1-10.9-3.29-6.8-7.09-13.7-11.28-20.6-10.49-17.2-21.03-34.4-31.57-51.6-13.65-22.3-27.27-44.6-40.83-66.9 21.82-12.8 43.5-25.7 65.01-39 28.6 47 54.91 89.9 80.14 130.5m-1148.1 448c2.51 11.9 9.06 19.6 20.08 23.4 14.4 5 28.97 6.5 43.28 4.3l2.79-.4c19.81-3 38.52-5.9 55.72-14.4 10.98-5.4 17.57-12.6 19.6-21.4 2.06-9-.86-19.7-7.79-28.5l-20.49-26.3 31.98 9.3c3.19.9 6.28 1.6 9.3 2.3 6.12 1.5 12.43 2.9 18.71 5.7 14.04 6.3 24.02 17.6 28.79 30.9 4.5 12.5 4.33 26.8-1.51 40.2-7.08 16.3-19.54 28.4-38.11 37.1-35.61 16.8-74.62 22.7-119.28 18-24.55-2.5-46.61-11.1-66.85-20.2-4.87 5.8-10.33 10.7-15.65 15.4l-2.74 2.5c-27.3 24.5-59.53 41.9-95.79 51.7-16.17 4.4-32.96 6.7-51.32 7.2-18.14.6-37.14-.7-53.23-13.4-24.13-19.1-30.43-39.3-20.47-65.5 6.11-16.2 18.9-28.4 37.99-36.3l23.61-9.7-9.46 23.7c-4.11 10.3-3.9 19.5.61 26.6 4.81 7.6 14.18 12.6 25.07 13.3 21.94 1.3 43.75-1.9 64.83-9.6 19.07-6.9 32.97-17.4 42.48-32 2.96-4.5 4.1-7.6 3.83-10.2-.79-7.5-1.99-15.3-3.58-23.2-3.97-19.8-7.98-39.5-12.01-59.3-4.83-23.8-9.62-47.5-14.37-71.3 24.9-4.5 49.72-9.3 74.43-14.3 10.37 51.7 20.09 99.2 29.55 144.4m-1232.08 28.3c-1.71 12.1 1.83 21.5 10.87 28.9 11.81 9.6 25 16 39.21 18.8l2.76.6c19.64 3.9 38.19 7.6 57.25 5.6 12.17-1.4 20.83-5.9 25.76-13.5 5.01-7.8 5.92-18.8 2.44-29.5l-10.28-31.6 26.89 19.6c2.69 1.9 5.34 3.7 7.93 5.4 5.26 3.4 10.69 7 15.63 11.8 11.04 10.7 16.56 24.7 16.5 38.8-.05 13.3-5.09 26.6-15.17 37.3-12.21 12.8-28.08 20-48.52 21.8-39.18 3.6-77.85-4.2-118.24-23.8-22.2-10.8-40-26.4-55.89-41.9-6.57 3.8-13.37 6.5-19.99 9.1l-3.4 1.4c-34.06 13.7-70.3 19-107.72 15.8-16.68-1.4-33.26-4.9-50.7-10.7-17.21-5.7-34.63-13.4-45.41-30.9-16.16-26.1-15.17-47.3 3.17-68.6 11.26-13 27.45-20.1 48.1-21l25.52-1.1-17.01 19c-7.38 8.3-10.33 17-8.53 25.3 1.92 8.8 9.04 16.6 19.03 21 20.14 8.8 41.74 13.2 64.17 13.2 20.31 0 36.95-5.1 50.88-15.6 4.34-3.2 6.46-5.7 7.1-8.3 1.81-7.2 3.35-15 4.56-22.9 3.03-20 6.01-39.9 8.99-59.9 3.32-22.1 6.68-44.3 10.07-66.4 24.86 4.2 49.8 8.2 74.84 11.9-7.61 50-14.48 96.3-20.81 140.4m-1167.47-394.8c-5.73 10.8-5.62 20.8.35 30.9 7.8 13.1 18.04 23.5 30.41 31.1l2.41 1.4c17.1 10.5 33.26 20.3 51.88 24.9 11.88 2.9 21.58 1.6 28.82-3.9 7.35-5.5 11.97-15.6 12.36-26.8l1.16-33.3 18.57 27.6c1.85 2.8 3.75 5.3 5.61 7.8 3.75 5.1 7.64 10.3 10.65 16.4 6.71 13.9 7.1 28.9 2.24 42.2-4.61 12.4-13.91 23.3-27.02 29.8-15.87 7.9-33.23 9.2-53.06 4-38.03-10.1-71.71-30.7-102.96-62.9-17.17-17.7-28.55-38.5-38.19-58.5-7.47 1.3-14.79 1.6-21.9 1.8l-3.67.1c-36.7 1.2-72.58-6.1-106.64-22-15.19-7-29.57-16-43.97-27.4-14.22-11.3-27.96-24.5-32.11-44.6-6.25-30 1.91-49.6 26.42-63.3 15.05-8.4 32.69-9.5 52.4-3.3l24.37 7.7-22.51 12.1c-9.76 5.2-15.51 12.4-16.64 20.8-1.2 8.9 2.79 18.7 10.69 26.2 15.92 15.2 34.68 26.7 55.78 34.4 19.09 6.9 36.47 7.8 53.14 2.7 5.19-1.5 8.03-3.1 9.5-5.3 4.2-6.2 8.28-13 12.15-20.1 9.67-17.7 19.29-35.4 28.91-53.1 9.8-18 19.64-36 29.48-54 21.92 12.5 43.94 24.9 66.16 36.9-23.19 42.5-44.56 82-64.79 119.7m-962.03-770.2c-9.05 8.1-12.39 17.6-10.21 29.1 2.84 14.9 8.88 28.3 17.93 39.6l1.76 2.2c12.51 15.6 24.33 30.4 40.26 41.1 10.17 6.8 19.72 8.9 28.4 6.2 8.81-2.7 16.58-10.6 20.8-21l12.47-30.9 7.99 32.4c.8 3.2 1.72 6.2 2.61 9.2 1.81 6 3.69 12.2 4.39 19.1 1.58 15.3-3.21 29.5-12.29 40.3-8.6 10.2-21.05 17.1-35.6 18.8-17.61 2-34.37-2.7-51.21-14.4-32.3-22.5-56.91-53.3-75.25-94.3-10.08-22.6-13.66-46-15.89-68-7.47-1.3-14.42-3.6-21.18-5.9l-3.48-1.1c-34.92-11.4-66.11-30.6-92.7-57.1-11.86-11.9-22.3-25.2-31.93-40.8-9.52-15.5-17.91-32.6-14.95-52.9 4.42-30.4 18.76-46 46.49-50.5 17.02-2.7 33.98 2.2 50.38 14.8l20.27 15.6-25.28 3.7c-10.97 1.5-18.83 6.3-22.76 13.8-4.18 8-3.78 18.6 1.07 28.3 9.77 19.7 23.45 37 40.65 51.4 15.58 13 31.6 19.8 49 20.8 5.41.3 8.63-.3 10.76-1.8 6.07-4.4 12.22-9.4 18.27-14.7 15.14-13.3 30.24-26.7 45.35-40 14.42-12.8 28.89-25.5 43.34-38.2 16.33 19.2 32.86 38.3 49.6 57.3-35.25 31-67.95 60-99.06 87.9m-640.561-1052.9c-11.285 4.5-17.676 12.3-19.547 23.8-2.449 15.1-1.336 29.7 3.301 43.4l.902 2.7c6.402 19 12.449 36.9 23.773 52.4 7.227 9.8 15.489 15.1 24.551 15.5 9.211.5 19.199-4.2 26.739-12.6l22.273-24.7-3.547 33.1c-.351 3.3-.531 6.5-.703 9.6-.356 6.2-.723 12.7-2.398 19.4-3.747 14.9-13.137 26.7-25.348 33.7-11.559 6.6-25.645 8.9-39.883 5.5-17.238-4.2-31.367-14.3-43.187-31.1-22.665-32.2-35.247-69.6-38.461-114.3-1.766-24.7 2.871-47.9 8.328-69.4-6.571-3.8-12.317-8.3-17.899-12.7l-2.883-2.3c-28.925-22.6-51.664-51.3-67.578-85.4-7.101-15.1-12.347-31.3-16.05-49.2-3.657-17.8-5.7-36.7 4.023-54.8 14.563-27.1 33.363-36.8 60.953-31.5 16.949 3.2 31.176 13.7 42.285 31.1l13.735 21.5-25.02-5.2c-10.851-2.2-19.871-.4-26.117 5.3-6.652 6-9.898 16.1-8.688 26.9 2.446 21.9 9.383 42.8 20.629 62.2 10.176 17.6 22.914 29.5 38.942 36.3 4.984 2.1 8.191 2.7 10.719 2a275 275 0 0 0 22.187-7.5c18.785-7.4 37.551-14.8 56.313-22.2 16.683-6.5 33.39-13 50.087-19.6 8.7 23.8 17.71 47.4 26.92 70.9-42.304 16.5-81.703 32.1-119.351 47.2m-241.836-1208.4c-12.156.4-20.82 5.5-26.516 15.7-7.449 13.3-11.398 27.4-11.73 41.9l-.071 2.8c-.472 20-.925 38.9 4.426 57.3 3.41 11.8 9.387 19.5 17.746 23.1 8.492 3.5 19.496 2.5 29.438-2.8l29.39-15.6-14.652 29.9c-1.461 3-2.715 5.9-3.934 8.8-2.476 5.7-5.039 11.7-8.894 17.4-8.625 12.7-21.481 20.6-35.348 23-13.121 2.2-27.148-.4-39.355-8.5-14.785-9.8-24.582-24.2-29.953-44-10.301-37.9-9.332-77.4 2.965-120.6 6.757-23.7 19.058-43.9 31.543-62.3-4.879-5.8-8.727-12-12.465-18.1l-1.93-3.1c-19.441-31.1-30.988-65.9-34.309-103.3-1.484-16.7-.902-33.6 1.774-51.8 2.64-18 7.195-36.5 22.512-50.1 22.937-20.4 43.929-23.2 68.058-8.8 14.824 8.8 24.61 23.6 29.09 43.7l5.535 25-21.73-13.5c-9.426-5.8-18.52-7.2-26.332-4-8.325 3.4-14.825 11.8-17.395 22.4-5.176 21.4-5.808 43.4-1.883 65.5 3.551 20 11.461 35.5 24.184 47.4 3.961 3.7 6.766 5.4 9.391 5.5 7.488.6 15.371.7 23.429.6 20.164-.5 40.324-1.1 60.485-1.6 17.894-.4 35.793-.8 53.691-1.3.012 25.3.391 50.6.957 75.8-45.348 1.1-87.637 2.3-128.117 3.6m186.066-1218.3c-11.562-3.8-21.457-2-30.293 5.7-11.554 9.9-20.082 21.8-25.347 35.3l-1.028 2.6c-7.297 18.7-14.187 36.3-15.461 55.4-.808 12.3 2.153 21.6 8.801 27.8 6.754 6.2 17.442 9 28.594 7.5l32.961-4.7-23.992 23.1c-2.395 2.3-4.571 4.6-6.692 6.9-4.301 4.6-8.75 9.3-14.32 13.3-12.457 9-27.231 12-41.078 9.5-13.106-2.3-25.379-9.6-34.086-21.4-10.543-14.2-14.828-31.1-13.106-51.5 3.309-39.2 17.707-76 44.032-112.3 14.468-20 32.949-34.8 50.957-47.8-2.602-7.1-4.086-14.3-5.528-21.3l-.746-3.6c-7.617-35.9-6.574-72.5 3.102-108.8 4.308-16.2 10.648-31.9 19.379-48.1 8.621-15.9 19.226-31.7 38.285-39.3 28.551-11.4 49.199-6.8 66.961 15 10.91 13.4 15.074 30.5 12.383 51l-3.332 25.4-15.825-20.1c-6.859-8.7-14.929-13.1-23.371-12.8-8.988.4-17.957 6-24 15.1-12.168 18.3-20.304 38.8-24.168 60.9-3.5 20-1.371 37.3 6.516 52.8 2.453 4.8 4.523 7.4 6.926 8.4 6.855 3.1 14.207 5.9 21.847 8.5 19.106 6.5 38.235 12.9 57.36 19.3 17.004 5.7 33.984 11.4 50.97 17.1-8.65 23.7-17.029 47.6-25.17 71.5-42.96-14.5-83.074-27.8-121.531-40.4m591.521-1081.2c-9.57-7.5-19.5-9.1-30.41-5-14.27 5.4-26.35 13.6-35.91 24.5l-1.86 2.1c-13.24 15.1-25.75 29.3-33.48 46.8-4.94 11.2-5.35 21-1.21 29.1 4.2 8.2 13.28 14.5 24.3 16.8l32.56 6.9-30.44 13.5c-3.04 1.4-5.88 2.8-8.64 4.2-5.61 2.8-11.41 5.7-18.02 7.6-14.79 4.2-29.7 2-41.86-5.1-11.5-6.7-20.55-17.7-24.7-31.8-5.03-17-3.29-34.3 5.32-52.9 16.52-35.7 42.61-65.3 79.79-90.5 20.43-13.8 42.86-21.4 64.22-27.4-.01-7.6 1.05-14.9 2.08-21.9l.53-3.6c5.12-36.4 18.63-70.5 40.13-101.2 9.59-13.8 20.92-26.4 34.65-38.6 13.56-12 28.94-23.3 49.44-23.9 30.72-.9 48.54 10.5 57.78 37 5.68 16.3 3.73 33.9-5.81 52.2l-11.79 22.7-8.01-24.3c-3.47-10.5-9.55-17.4-17.59-20-8.57-2.7-18.93-.5-27.72 6-17.7 13-32.34 29.5-43.54 48.9-10.13 17.6-14.04 34.6-11.94 51.9.65 5.4 1.74 8.5 3.63 10.3a246 246 0 0 0 17.63 15.4c15.75 12.6 31.53 25.2 47.31 37.7 15.07 12 30.1 24.1 45.14 36.1-16.3 19.3-32.38 38.8-48.25 58.4-36.53-29.2-70.63-56.2-103.33-81.9m925.63-813.7c-6.42-10.3-15.2-15.2-26.86-15.1-15.26.2-29.43 3.9-42.14 10.8l-2.47 1.4c-17.59 9.6-34.19 18.6-47.47 32.5-8.47 8.8-12.19 17.8-11.06 26.9s7.52 18.1 17.07 24.1l28.22 17.6-33.21 2.3c-3.32.2-6.47.6-9.55 1-6.23.7-12.68 1.5-19.54 1-15.33-1.1-28.58-8.3-37.58-19.2-8.52-10.2-13.25-23.7-12.35-38.3 1.09-17.7 8.65-33.3 23.12-47.9 27.73-27.9 62.37-46.8 105.91-57.7 23.94-6 47.61-5.5 69.74-3.9 2.59-7.1 6.06-13.5 9.44-19.8l1.73-3.2c17.26-32.4 41.6-59.8 72.33-81.4 13.71-9.6 28.67-17.6 45.75-24.4 16.86-6.7 35.15-12 54.62-5.5 29.19 9.6 42.02 26.4 41.64 54.5-.23 17.3-8.07 33.1-23.31 47.1l-18.84 17.2.78-25.5c.34-11.1-3-19.7-9.69-24.8-7.12-5.5-17.62-7-28.08-3.9-21.09 6.2-40.49 16.7-57.66 31.1-15.54 13.1-25.02 27.7-28.96 44.7-1.23 5.3-1.26 8.5-.11 10.9 3.29 6.7 7.09 13.6 11.28 20.5 10.5 17.3 21.03 34.4 31.57 51.6 10.71 17.5 21.37 35 32.03 52.6-21.92 12.5-43.66 25.4-65.28 38.4-25.1-41.1-48.54-79.3-71.07-115.6m1148.1-448c-2.51-11.9-9.06-19.5-20.08-23.3-14.4-5.1-28.96-6.5-43.28-4.3l-2.79.4c-19.81 3-38.51 5.8-55.72 14.3-10.98 5.4-17.57 12.6-19.59 21.5-2.06 9 .85 19.6 7.78 28.5l20.5 26.2-31.98-9.2c-3.2-.9-6.29-1.7-9.31-2.4-6.11-1.4-12.43-2.9-18.71-5.7-14.03-6.3-24.02-17.6-28.78-30.8-4.51-12.5-4.34-26.8 1.51-40.2 7.07-16.3 19.54-28.4 38.11-37.2 35.6-16.7 74.61-22.6 119.28-18 24.54 2.5 46.61 11.1 66.84 20.2 4.87-5.8 10.34-10.6 15.65-15.4l2.74-2.4c27.3-24.6 59.53-42 95.8-51.7 16.17-4.4 32.95-6.8 51.32-7.3 18.13-.5 37.13.8 53.23 13.5 24.12 19 30.43 39.2 20.47 65.5-6.12 16.1-18.91 28.3-38 36.2l-23.61 9.8 9.47-23.7c4.1-10.3 3.9-19.5-.62-26.7-4.81-7.6-14.18-12.5-25.07-13.2-21.94-1.4-43.75 1.8-64.82 9.5-19.08 7-32.97 17.5-42.48 32.1-2.96 4.5-4.11 7.6-3.83 10.2.78 7.4 1.98 15.2 3.57 23.1 3.97 19.8 7.99 39.6 12.01 59.3 4.46 22 8.87 43.9 13.27 65.9-24.96 4.2-49.8 8.8-74.56 13.6-9.91-49.3-19.24-94.9-28.32-138.3m1232.09-28.3c1.71-12-1.83-21.4-10.87-28.8-11.82-9.7-25.01-16-39.21-18.8l-2.77-.6c-19.64-4-38.19-7.7-57.25-5.6-12.17 1.3-20.83 5.8-25.76 13.5-5.01 7.7-5.91 18.7-2.44 29.4l10.29 31.7-26.89-19.6c-2.69-2-5.35-3.7-7.94-5.4-5.25-3.5-10.68-7-15.62-11.8-11.04-10.7-16.56-24.7-16.51-38.8.05-13.3 5.09-26.7 15.18-37.3 12.21-12.9 28.08-20 48.51-21.9 39.18-3.5 77.86 4.3 118.25 23.9 22.2 10.8 39.99 26.4 55.89 41.9 6.56-3.8 13.37-6.5 19.98-9.2l3.41-1.3c34.05-13.7 70.29-19.1 107.71-15.9 16.69 1.5 33.27 5 50.7 10.8 17.22 5.7 34.64 13.4 45.42 30.9 16.16 26.1 15.17 47.2-3.17 68.5-11.27 13.1-27.45 20.2-48.1 21l-25.53 1.2 17.01-19.1c7.38-8.3 10.33-17 8.53-25.2-1.92-8.8-9.03-16.7-19.03-21-20.14-8.9-41.73-13.3-64.17-13.3-20.31.1-36.95 5.2-50.88 15.6-4.34 3.3-6.45 5.8-7.09 8.3-1.82 7.3-3.35 15-4.56 23-3.03 19.9-6.02 39.9-9 59.8q-5.385 36-10.89 72c-24.82-4.5-49.76-8.6-74.76-12.5 7.92-52 15.01-99.8 21.56-145.4M5924 14232.1c5.73-10.7 5.62-20.8-.35-30.8-7.8-13.1-18.03-23.6-30.4-31.1l-2.41-1.5c-17.11-10.4-33.26-20.3-51.89-24.8-11.88-3-21.57-1.6-28.81 3.8-7.36 5.6-11.97 15.6-12.37 26.9l-1.16 33.2-18.56-27.6c-1.86-2.8-3.76-5.3-5.62-7.8-3.75-5-7.64-10.2-10.64-16.4-6.71-13.8-7.1-28.9-2.24-42.1 4.6-12.5 13.9-23.3 27.01-29.8 15.87-8 33.23-9.2 53.07-4 38.03 10.1 71.7 30.6 102.95 62.9 17.18 17.7 28.55 38.5 38.2 58.4 7.46-1.3 14.78-1.5 21.9-1.7l3.66-.1c36.7-1.3 72.58 6.1 106.64 21.9 15.19 7.1 29.57 16.1 43.97 27.5 14.22 11.2 27.96 24.4 32.12 44.5 6.24 30.1-1.91 49.6-26.42 63.3-15.06 8.5-32.69 9.6-52.4 3.4l-24.37-7.7 22.5-12.1c9.76-5.3 15.52-12.4 16.64-20.8 1.21-8.9-2.79-18.7-10.68-26.3-15.92-15.1-34.69-26.7-55.78-34.3-19.1-7-36.48-7.9-53.15-2.8-5.18 1.6-8.02 3.2-9.49 5.4-4.2 6.2-8.29 12.9-12.15 20-9.67 17.7-19.29 35.4-28.92 53.2-12.47 22.9-24.96 45.9-37.53 68.8-21.81-12.8-43.79-25.2-65.9-37.5 26.27-48 50.1-92 72.58-134m962.03 770.3c9.06-8.1 12.4-17.6 10.22-29.1-2.85-15-8.89-28.3-17.94-39.6l-1.76-2.2c-12.51-15.7-24.32-30.4-40.26-41.1-10.16-6.8-19.72-8.9-28.39-6.2-8.82 2.7-16.59 10.5-20.81 21l-12.47 30.8-7.99-32.3c-.8-3.2-1.71-6.3-2.61-9.2-1.81-6.1-3.68-12.3-4.39-19.1-1.58-15.3 3.21-29.6 12.3-40.3 8.6-10.2 21.04-17.2 35.59-18.8 17.62-2 34.37 2.7 51.22 14.4 32.29 22.5 56.9 53.3 75.24 94.3 10.08 22.5 13.67 45.9 15.89 68 7.47 1.3 14.42 3.6 21.18 5.8l3.49 1.2c34.91 11.4 66.1 30.6 92.69 57.1 11.87 11.8 22.31 25.2 31.94 40.8 9.51 15.5 17.91 32.5 14.95 52.8-4.43 30.5-18.77 46-46.49 50.5-17.03 2.8-33.98-2.2-50.38-14.8l-20.28-15.5 25.29-3.7c10.97-1.6 18.83-6.4 22.75-13.8 4.18-8 3.78-18.6-1.06-28.4-9.77-19.7-23.45-37-40.66-51.4-15.58-13-31.6-19.8-49-20.7-5.41-.3-8.63.2-10.75 1.8-6.08 4.4-12.22 9.3-18.28 14.6-15.13 13.4-30.24 26.7-45.34 40.1-20.8 18.4-41.59 36.8-62.47 55-16.2-19.3-32.58-38.6-49.21-57.6 42.63-37.5 81.21-71.7 117.79-104.4m640.57 1052.8c11.28-4.5 17.67-12.3 19.54-23.8 2.45-15 1.34-29.6-3.3-43.4l-.9-2.6c-6.4-19-12.45-36.9-23.77-52.4-7.23-9.9-15.49-15.1-24.56-15.6-9.2-.5-19.19 4.3-26.73 12.6l-22.28 24.8 3.55-33.1c.35-3.3.53-6.5.7-9.6.36-6.3.73-12.7 2.4-19.4 3.75-14.9 13.14-26.7 25.35-33.7 11.56-6.6 25.64-8.9 39.88-5.5 17.24 4.1 31.37 14.3 43.19 31.1 22.67 32.1 35.25 69.5 38.46 114.3 1.77 24.6-2.87 47.8-8.33 69.4 6.57 3.7 12.32 8.3 17.9 12.7l2.88 2.3c28.93 22.6 51.67 51.3 67.58 85.3 7.1 15.2 12.35 31.3 16.05 49.3 3.66 17.8 5.7 36.7-4.02 54.8-14.56 27-33.36 36.7-60.95 31.5-16.95-3.2-31.18-13.7-42.29-31.1l-13.73-21.6 25.02 5.2c10.85 2.3 19.87.5 26.11-5.2 6.66-6.1 9.9-16.2 8.69-27-2.44-21.8-9.38-42.8-20.63-62.2-10.18-17.6-22.91-29.4-38.94-36.3-4.99-2.1-8.19-2.7-10.72-2-7.21 2.1-14.68 4.7-22.19 7.6-18.78 7.3-37.54 14.7-56.31 22.1-26.44 10.4-52.87 20.8-79.36 31.1-8.62-23.8-17.56-47.4-26.7-71 53.68-20.9 102.24-40.1 148.41-58.6M4269.91 21026c6.67-6.6 13.4-6.8 20.32.1 20.68 20.6 41.48 41.2 62.3 61.7 5.83 5.7 6.13 11 .08 16.9-11.14 10.9-21.98 22.1-32.95 33.1-10.97 11.1-22.1 22-32.83 33.3-5.29 5.6-10.38 6.6-16.02 1.2-21.89-21-43.88-42-65.41-63.4-5.45-5.4-6.43-12.3-.1-18.6 21.55-21.5 43.02-43 64.61-64.3m-726.88 4.7c24.94-17.4 49.82-34.8 74.8-52.1 7.71-5.4 14.37-4.4 19.98 3.6 16.78 24 33.7 47.8 50.65 71.6 4.74 6.6 4.13 11.9-2.86 16.6-12.86 8.9-25.48 18-38.21 27s-25.58 17.8-38.11 27.1c-6.18 4.6-11.37 4.7-15.98-1.6-17.9-24.6-35.92-49-53.41-73.9-4.42-6.2-4.19-13.2 3.14-18.3m-617.68-171.6c27.58-12.7 55.11-25.6 82.72-38.3 8.52-3.9 14.9-1.8 19.04 7.1 12.37 26.4 24.9 52.8 37.45 79.2 3.52 7.4 2 12.5-5.71 15.9-14.19 6.5-28.21 13.3-42.31 19.9-14.09 6.7-28.28 13.1-42.23 20.1-6.88 3.4-12.01 2.7-15.46-4.4-13.37-27.2-26.86-54.5-39.77-82-3.27-6.9-1.82-13.7 6.27-17.5m-590.5-278.3c29.38-7.8 58.72-15.7 88.11-23.4 9.08-2.4 14.99.8 17.53 10.3 7.58 28.2 15.34 56.4 23.12 84.5 2.18 7.9-.19 12.6-8.39 14.7-15.09 3.9-30.08 8.2-45.12 12.3-15.03 4.1-30.13 8-45.07 12.4-7.37 2.2-12.3.5-14.47-7-8.43-29.2-16.99-58.3-24.93-87.6-2.01-7.5.6-13.9 9.22-16.2m-533.19-376.7c30.28-2.5 60.54-5.2 90.83-7.7 9.35-.7 14.62 3.4 15.48 13.2 2.56 29.1 5.31 58.2 8.08 87.3.78 8.1-2.37 12.3-10.81 13-15.54 1.2-31.04 2.8-46.56 4.2s-31.06 2.6-46.55 4.4c-7.64.9-12.2-1.6-13.03-9.4-3.24-30.2-6.61-60.4-9.34-90.6-.69-7.7 3.01-13.6 11.9-14.4m-459.69-463.5c30.26 2.8 60.53 5.4 90.78 8.2 9.35.9 13.81 5.9 12.97 15.6-2.53 29.2-4.88 58.3-7.2 87.4-.65 8.1-4.48 11.8-12.91 10.9-15.51-1.5-31.06-2.6-46.59-3.9s-31.04-2.8-46.6-3.7c-7.67-.5-11.73-3.7-11.2-11.5 2.05-30.3 3.98-60.7 6.54-90.9.65-7.7 5.32-12.9 14.21-12.1m-388.306-526.9c1.965-7.4 7.469-11.7 16.078-9.4 29.328 8 58.688 15.8 87.998 23.9 9.04 2.4 12.57 8.2 10.04 17.6-7.54 28.2-14.91 56.5-22.26 84.8-2.05 7.9-6.45 10.8-14.61 8.5-15-4.2-30.13-8-45.195-11.9-15.07-4-30.09-8.2-45.242-11.8-7.477-1.8-10.914-5.7-9.035-13.3 7.285-29.5 14.445-59 22.226-88.4M678.836 18618c3.227-7 9.391-10.2 17.469-6.4 27.5 12.9 55.047 25.7 82.519 38.7 8.481 4 10.957 10.2 6.828 19.1-12.332 26.5-24.5 53.1-36.644 79.7-3.395 7.4-8.235 9.5-15.867 5.8-14.051-6.7-28.286-13.1-42.438-19.6s-28.219-13.3-42.512-19.5c-7.05-3-9.757-7.5-6.589-14.6 12.296-27.8 24.472-55.6 37.234-83.2m-167.207-634.4c4.391-6.3 11.031-8.4 18.324-3.3 24.84 17.5 49.738 34.9 74.539 52.5 7.66 5.4 9.012 12 3.406 20-16.746 23.9-33.343 48-49.918 72.1-4.632 6.7-9.761 7.9-16.644 3-12.664-9.1-25.582-17.8-38.387-26.7s-25.488-18-38.484-26.6c-6.414-4.2-8.309-9-3.949-15.5 16.933-25.3 33.761-50.5 51.113-75.5m-35.883-653.9c21.422 21.6 42.922 43.1 64.297 64.7 6.598 6.6 6.789 13.4-.125 20.3-20.648 20.7-41.172 41.5-61.672 62.3-5.734 5.8-10.992 6.1-16.918.1-10.894-11.2-22.101-22-33.168-33s-21.984-22.1-33.289-32.8c-5.578-5.3-6.601-10.4-1.183-16 21.054-21.9 42.015-43.9 63.433-65.5 5.418-5.4 12.336-6.4 18.625-.1m108.031-555.3c-23.922 16.8-47.746 33.7-71.55 50.7-6.661 4.7-11.895 4.1-16.672-2.9-8.797-12.8-17.953-25.4-26.946-38.2-8.992-12.7-17.812-25.6-27.082-38.1-4.578-6.2-4.703-11.4 1.614-16 24.539-17.9 49-35.9 73.828-53.4 6.285-4.4 13.265-4.2 18.363 3.2 17.352 24.9 34.797 49.8 52.098 74.8 5.34 7.7 4.359 14.3-3.653 19.9m154.371-622.8c-26.476 12.3-52.875 24.8-79.261 37.4-7.379 3.5-12.426 2-15.922-5.7-6.43-14.2-13.254-28.2-19.899-42.3-6.644-14.1-13.101-28.3-20.054-42.2-3.434-6.9-2.657-12.1 4.363-15.5 27.273-13.4 54.492-26.9 81.984-39.8 6.954-3.2 13.789-1.8 17.539 6.3 12.758 27.6 25.614 55.1 38.317 82.7 3.922 8.5 1.797 14.9-7.067 19.1m260.188-586.7c-28.223 7.6-56.395 15.4-84.559 23.2-7.879 2.1-12.589-.2-14.691-8.4-3.867-15.1-8.152-30.1-12.25-45.1-4.098-15.1-7.988-30.2-12.414-45.1-2.188-7.4-.527-12.3 6.98-14.5 29.184-8.4 58.332-17 87.649-24.9 7.414-2 13.894.6 16.179 9.2 7.774 29.4 15.66 58.7 23.37 88.1 2.38 9.1-.82 15-10.264 17.5m358.104-532.5c-29.11 2.6-58.2 5.3-87.29 8.1-8.14.8-12.37-2.4-13.01-10.8-1.19-15.6-2.81-31.1-4.23-46.6-1.43-15.5-2.64-31-4.4-46.5-.88-7.7 1.61-12.2 9.39-13.1 30.2-3.2 60.39-6.6 90.64-9.3 7.65-.7 13.58 3 14.33 11.9 2.56 30.3 5.23 60.6 7.72 90.8.77 9.4-3.41 14.7-13.15 15.5m445.13-462.2c-29.11-2.6-58.24-4.9-87.37-7.2-8.15-.7-11.76-4.5-10.93-12.9 1.53-15.5 2.62-31.1 3.92-46.6 1.29-15.6 2.8-31.1 3.74-46.6.47-7.7 3.72-11.8 11.52-11.2 30.3 2 60.62 3.9 90.88 6.5 7.66.7 12.86 5.3 12.05 14.2-2.74 30.3-5.37 60.5-8.17 90.8-.87 9.3-5.9 13.8-15.64 13m536.29-388c-2.47 9-8.2 12.6-17.65 10-28.23-7.5-56.51-14.9-84.79-22.2-7.92-2.1-10.81-6.5-8.53-14.6 4.2-15 7.98-30.2 11.95-45.2 3.97-15.1 8.15-30.1 11.78-45.3 1.8-7.5 5.69-10.9 13.29-9 29.48 7.3 59.01 14.4 88.37 22.2 7.42 2 11.73 7.5 9.39 16.1-7.95 29.3-15.79 58.7-23.81 88m577.86-278.9c-4 8.4-10.26 10.9-19.13 6.8-26.49-12.3-53.05-24.5-79.63-36.7-7.44-3.3-9.53-8.2-5.86-15.8 6.74-14.1 13.09-28.3 19.61-42.4 6.53-14.2 13.25-28.3 19.47-42.6 3.06-7 7.49-9.7 14.64-6.5 27.78 12.2 55.61 24.4 83.17 37.2 6.98 3.2 10.26 9.4 6.47 17.5-12.93 27.4-25.75 55-38.74 82.5m617.52-174.4c-5.42 7.7-12.01 9-20.03 3.4-23.94-16.7-47.99-33.3-72.06-49.9-6.73-4.6-7.95-9.7-3.01-16.6 9.07-12.7 17.8-25.6 26.68-38.4 8.89-12.8 17.95-25.5 26.55-38.5 4.24-6.4 9.08-8.3 15.57-3.9 25.22 16.9 50.51 33.7 75.44 51.1 6.31 4.4 8.47 11 3.33 18.3-17.5 24.8-34.91 49.7-52.47 74.5m638.41-64.4c-6.67 6.6-13.39 6.8-20.32-.1-20.67-20.7-41.47-41.2-62.3-61.7-5.82-5.7-6.13-11-.07-16.9 11.13-10.9 21.97-22.1 32.94-33.2 10.98-11.1 22.11-22 32.83-33.3 5.29-5.6 10.39-6.6 16.02-1.2 21.89 21.1 43.88 42.1 65.42 63.5 5.45 5.4 6.43 12.3.1 18.6-21.55 21.4-43.03 42.9-64.62 64.3m714.7-4.7c-24.94 17.3-49.82 34.8-74.8 52.1-7.71 5.3-14.37 4.3-19.99-3.7-16.77-23.9-33.69-47.7-50.64-71.5-4.74-6.7-4.13-11.9 2.86-16.7 12.86-8.8 25.48-18 38.21-26.9 12.73-9 25.58-17.9 38.11-27.1 6.18-4.6 11.37-4.7 15.98 1.6 17.9 24.5 35.92 49 53.41 73.8 4.42 6.3 4.18 13.3-3.14 18.4m629.86 171.5c-27.58 12.8-55.11 25.6-82.71 38.4-8.52 3.9-14.91 1.7-19.05-7.1-12.36-26.5-24.89-52.9-37.45-79.3-3.51-7.4-2-12.4 5.71-15.9 14.2-6.4 28.21-13.2 42.31-19.9 14.1-6.6 28.29-13.1 42.23-20.1 6.88-3.4 12.02-2.6 15.46 4.4 13.37 27.3 26.87 54.5 39.78 82 3.26 7 1.82 13.8-6.28 17.5m590.5 278.4c-29.37 7.7-58.72 15.6-88.11 23.3-9.07 2.4-14.99-.8-17.53-10.2-7.58-28.2-15.33-56.4-23.12-84.6-2.17-7.9.19-12.6 8.39-14.7 15.1-3.8 30.09-8.1 45.12-12.2 15.04-4.1 30.14-8 45.07-12.4 7.38-2.2 12.3-.6 14.47 7 8.43 29.1 17 58.3 24.94 87.6 2.01 7.4-.6 13.9-9.23 16.2m533.2 376.6c-30.28 2.6-60.55 5.2-90.83 7.7-9.35.8-14.63-3.4-15.49-13.1-2.56-29.1-5.3-58.2-8.08-87.3-.77-8.2 2.37-12.4 10.82-13 15.53-1.2 31.04-2.8 46.56-4.2 15.52-1.5 31.06-2.7 46.54-4.5 7.64-.8 12.2 1.7 13.04 9.4 3.23 30.2 6.6 60.4 9.33 90.7.69 7.6-3 13.6-11.89 14.3m459.69 463.5c-30.26-2.7-60.54-5.4-90.79-8.1-9.34-.9-13.81-5.9-12.96-15.7 2.53-29.1 4.87-58.2 7.19-87.4.65-8.1 4.48-11.7 12.91-10.9 15.51 1.5 31.06 2.6 46.59 3.9s31.05 2.8 46.6 3.8c7.68.5 11.74 3.7 11.21 11.5-2.06 30.3-3.98 60.6-6.55 90.9-.64 7.6-5.31 12.8-14.2 12m388.3 526.9c-1.97 7.5-7.47 11.7-16.08 9.4-29.33-7.9-58.68-15.8-87.99-23.8-9.05-2.5-12.57-8.2-10.05-17.6 7.55-28.3 14.92-56.6 22.26-84.8 2.05-8 6.45-10.8 14.61-8.6 15.01 4.2 30.13 8 45.2 12s30.09 8.1 45.24 11.8c7.48 1.8 10.92 5.7 9.04 13.3-7.29 29.4-14.45 59-22.23 88.3m274.83 595.7c-3.23 7-9.39 10.3-17.47 6.5-27.5-12.9-55.05-25.7-82.52-38.7-8.48-4-10.96-10.3-6.83-19.2 12.33-26.5 24.5-53 36.64-79.6 3.4-7.4 8.24-9.5 15.88-5.9 14.04 6.8 28.28 13.1 42.43 19.7 14.15 6.5 28.22 13.2 42.51 19.4 7.05 3.1 9.76 7.5 6.6 14.7-12.3 27.7-24.48 55.6-37.24 83.1m167.21 634.4c-4.39 6.3-11.03 8.5-18.33 3.4-24.84-17.5-49.74-35-74.54-52.5-7.65-5.4-9.01-12-3.4-20 16.74-24 33.34-48 49.91-72.1 4.64-6.7 9.76-7.9 16.65-3 12.66 9.1 25.58 17.8 38.39 26.7 12.8 8.9 25.48 17.9 38.48 26.5 6.41 4.3 8.3 9.1 3.95 15.6-16.94 25.2-33.76 50.5-51.11 75.4m117.94 588.4c-21.06 21.9-42.02 43.9-63.44 65.4-5.42 5.5-12.33 6.4-18.62.1-21.42-21.5-42.92-43-64.3-64.6-6.6-6.7-6.78-13.4.13-20.3 20.65-20.7 41.17-41.5 61.67-62.3 5.73-5.8 10.99-6.1 16.91-.1 10.9 11.1 22.11 22 33.17 32.9 11.07 11 21.99 22.1 33.29 32.9 5.58 5.3 6.61 10.4 1.19 16m-190.09 620.8c23.92-16.8 47.75-33.7 71.55-50.6 6.66-4.8 11.89-4.2 16.67 2.8 8.8 12.9 17.95 25.5 26.95 38.2 8.99 12.8 17.81 25.6 27.08 38.1 4.57 6.2 4.7 11.4-1.62 16-24.53 17.9-48.99 35.9-73.83 53.4-6.28 4.5-13.26 4.2-18.36-3.1-17.35-24.9-34.79-49.8-52.09-74.8-5.34-7.7-4.36-14.4 3.65-20m-154.38 622.9c26.48-12.4 52.88-24.9 79.27-37.5 7.38-3.5 12.42-2 15.92 5.8 6.43 14.2 13.25 28.2 19.9 42.3s13.1 28.3 20.05 42.2c3.44 6.9 2.66 12-4.36 15.5-27.28 13.3-54.5 26.8-81.99 39.7-6.95 3.3-13.78 1.9-17.53-6.2-12.76-27.6-25.62-55.1-38.32-82.8-3.92-8.5-1.8-14.9 7.06-19m-260.18 586.6c28.22-7.6 56.39-15.3 84.56-23.1 7.88-2.2 12.58.2 14.69 8.4 3.86 15.1 8.15 30.1 12.25 45.1 4.09 15 7.99 30.1 12.42 45.1 2.18 7.4.52 12.3-6.99 14.4-29.18 8.5-58.33 17-87.64 25-7.42 2-13.9-.6-16.18-9.2-7.78-29.4-15.66-58.8-23.38-88.2-2.38-9 .82-14.9 10.27-17.5m-358.1 532.5c29.11-2.5 58.2-5.3 87.29-8 8.13-.8 12.36 2.3 13.01 10.8 1.18 15.5 2.8 31 4.23 46.5 1.42 15.6 2.63 31.1 4.4 46.6.87 7.6-1.62 12.2-9.39 13-30.21 3.3-60.4 6.6-90.64 9.3-7.66.7-13.59-3-14.34-11.8-2.56-30.3-5.22-60.6-7.72-90.9-.76-9.3 3.41-14.6 13.16-15.5M6640 20120.3c29.11 2.5 58.24 4.9 87.36 7.2 8.15.6 11.77 4.5 10.94 12.9-1.53 15.5-2.63 31-3.92 46.6-1.3 15.5-2.8 31-3.75 46.6-.47 7.7-3.71 11.7-11.51 11.2-30.31-2.1-60.63-4-90.89-6.5-7.66-.7-12.85-5.4-12.05-14.2 2.74-30.3 5.37-60.6 8.17-90.8.87-9.4 5.9-13.9 15.65-13m-542.14 393.8c2.48-9 8.21-12.6 17.66-10 28.23 7.5 56.5 14.9 84.79 22.2 7.91 2.1 10.81 6.5 8.52 14.6-4.19 15-7.97 30.2-11.95 45.2-3.97 15.1-8.14 30.1-11.78 45.3-1.79 7.5-5.69 10.9-13.28 9-29.49-7.3-59.01-14.4-88.37-22.2-7.43-2-11.74-7.5-9.4-16.1 7.95-29.3 15.8-58.7 23.81-88m-572.02 273.1c4.01-8.5 10.26-11 19.13-6.8 26.49 12.3 53.06 24.5 79.64 36.6 7.43 3.4 9.52 8.2 5.86 15.9-6.74 14-13.09 28.3-19.62 42.4-6.52 14.2-13.25 28.2-19.46 42.5-3.07 7.1-7.5 9.8-14.65 6.6-27.77-12.3-55.61-24.5-83.17-37.2-6.97-3.3-10.26-9.4-6.46-17.5 12.92-27.5 25.75-55 38.73-82.5m-617.51 174.3c5.41-7.6 12-9 20.02-3.4 23.95 16.8 48 33.4 72.06 49.9 6.74 4.7 7.95 9.8 3.02 16.7-9.08 12.6-17.8 25.6-26.69 38.4-8.88 12.8-17.95 25.5-26.55 38.4-4.24 6.5-9.08 8.4-15.57 4-25.21-16.9-50.51-33.8-75.44-51.1-6.3-4.4-8.47-11-3.33-18.3 17.51-24.9 34.92-49.8 52.48-74.6" style="fill:#694432;fill-opacity:1;fill-rule:nonzero;stroke:none" transform="matrix(.13333 0 0 -.13333 0 2875.467)"/>
  <path d="M13.69-31.762 13.687.005 23.08 0l.001-31.767 12.006-.004v-7.714l-33.393.007v7.714zm0 0" style="fill:#694432;fill-opacity:1;fill-rule:nonzero;stroke:none" aria-label="T" transform="rotate(-68.15 465.896 48.845)scale(1.33333)"/>
  <path d="m12.538-.003.004-15.854 15.538.004L28.076.001h9.547l-.004-39.475h-9.547l.007 15.847-15.538-.004-.007-15.847H2.988L2.992-.003zm0 0" style="fill:#694432;fill-opacity:1;fill-rule:nonzero;stroke:none" aria-label="H" transform="rotate(-58.555 502.963 -30.703)scale(1.33333)"/>
  <path d="m30.518-.004.006-7.77-17.977.01-.004-8.087 16.573-.01-.004-7.762-16.572.01.002-8.153 17.976-.01v-7.704H2.995L2.993-.002zm0 0" style="fill:#694432;fill-opacity:1;fill-rule:nonzero;stroke:none" aria-label="E" transform="matrix(.868 -1.0121 1.0121 .868 297.405 365.587)"/>
  <path d="M13.692-31.766 13.685.004l9.385-.005.006-31.77 12.012.002-.008-7.711H1.688l.008 7.71zm0 0" style="fill:#694432;fill-opacity:1;fill-rule:nonzero;stroke:none" aria-label="T" transform="rotate(-37.156 640.63 -353.81)scale(1.33333)"/>
  <path d="m30.517.004.001-7.766-17.98-.007.002-8.086 16.569.005-.009-7.771-16.57-.005.01-8.148 17.979.008v-7.714l-27.534-.003L2.984.001zm0 0" style="fill:#694432;fill-opacity:1;fill-rule:nonzero;stroke:none" aria-label="E" transform="rotate(-28.393 753.666 -620.987)scale(1.33333)"/>
  <path d="m1.899-39.47 11.95 19.699L1.577.003 12.436 0l7.44-12.597.26.004L27.585.004l10.97-.001L26.22-19.768l11.902-19.705-10.648.001-7.331 12.425-.26-.004-7.226-12.42zm0 0" style="fill:#694432;fill-opacity:1;fill-rule:nonzero;stroke:none" aria-label="X" transform="rotate(-19.205 984.59 -1135.559)scale(1.33333)"/>
  <path d="M13.688-31.766 13.692.007 23.07.006l-.003-31.773 12.017-.005v-7.702h-33.4v7.703zm0 0" style="fill:#694432;fill-opacity:1;fill-rule:nonzero;stroke:none" aria-label="T" transform="rotate(-9.633 1679.516 -2740.269)scale(1.33333)"/>
  <path d="M26.893-14.825c-.01 1.36-.335 2.55-.926 3.63-.603 1.033-1.414 1.91-2.502 2.514-1.088.592-2.336.912-3.754.912-1.406 0-2.655-.324-3.747-.916a6.63 6.63 0 0 1-2.538-2.514c-.604-1.077-.89-2.265-.879-3.624l-.01-24.66-9.552-.003.009 25.469c-.001 2.942.696 5.484 2.055 7.663 1.407 2.168 3.372 3.852 5.86 5.053C13.423-.112 16.355.486 19.719.494c3.317-.005 6.245-.602 8.737-1.792 2.504-1.202 4.454-2.893 5.872-5.05 1.406-2.18 2.069-4.725 2.07-7.667l-.01-25.468-9.505-.002zm0 0" style="fill:#694432;fill-opacity:1;fill-rule:nonzero;stroke:none" aria-label="U" transform="matrix(1.33316 -.02162 .02162 1.33316 534.085 234.08)"/>
  <path d="m12.537-21.015-.004-10.82 4.676.008c1.458-.006 2.657.22 3.64.658.985.378 1.685.979 2.23 1.794.484.814.757 1.79.755 3.049-.004 1.175-.279 2.215-.763 2.98a4.85 4.85 0 0 1-2.228 1.74c-.974.368-2.172.593-3.63.599zm.002 21.012-.004-13.525 4.841.005L24.654.002 35.083 0l-8.256-14.984c2.186-1.034 3.91-2.505 5.053-4.359 1.183-1.895 1.788-4.222 1.796-6.94-.004-2.728-.61-5.053-1.797-7.012-1.136-2.004-2.827-3.468-4.945-4.557-2.178-1.09-4.723-1.578-7.713-1.58l-16.29.003L2.928.058zm0 0" style="fill:#694432;fill-opacity:1;fill-rule:nonzero;stroke:none" aria-label="R" transform="rotate(8.991 -1192.838 3869.197)scale(1.33333)"/>
  <path d="M30.512.007V-7.77H12.538v-8.083l16.57-.005.004-7.764-16.57.004-.006-8.142 17.975.002-.004-7.713-27.522-.002L2.99.005zm0 0" style="fill:#694432;fill-opacity:1;fill-rule:nonzero;stroke:none" aria-label="E" transform="rotate(17.721 -457.07 2176.725)scale(1.33333)"/>
  <path d="m13.684-31.772.004 31.766 9.389.008-.005-31.766 12.008-.007.005-7.708H1.691l-.005 7.708zm0 0" style="fill:#694432;fill-opacity:1;fill-rule:nonzero;stroke:none" aria-label="T" transform="rotate(30.073 -141.442 1445.586)scale(1.33333)"/>
  <path d="m12.537-21.012.002-10.812 4.674-.008c1.466.001 2.66.225 3.638.668.986.376 1.682.973 2.223 1.787.498.818.764 1.795.768 3.046-.006 1.182-.273 2.229-.767 2.978-.537.769-1.24 1.354-2.221 1.744-.98.374-2.177.591-3.643.59zm0 21.019v-13.53l4.84-.007L24.657.003l10.431-.004-8.261-15c2.179-1.016 3.914-2.486 5.038-4.336 1.212-1.89 1.804-4.228 1.802-6.944.007-2.724-.595-5.044-1.8-7.01-1.133-2.008-2.822-3.474-4.943-4.56-2.17-1.09-4.719-1.57-7.71-1.572l-16.286.006.006 39.48zm0 0" style="fill:#694432;fill-opacity:1;fill-rule:nonzero;stroke:none" aria-label="R" transform="rotate(39.094 -36.021 1203.213)scale(1.33333)"/>
  <path d="M37.738-30.78c-1.62-3.058-3.912-5.332-6.79-6.904-2.818-1.567-6.024-2.336-9.545-2.337-3.529.007-6.734.766-9.571 2.33-2.878 1.577-5.095 3.857-6.788 6.908-1.619 3.037-2.484 6.673-2.49 11.017.003 4.334.869 8.04 2.493 11.022 1.686 3.036 3.92 5.323 6.789 6.887C14.664-.267 17.865.545 21.393.538c3.521 0 6.732-.8 9.555-2.33 2.886-1.569 5.165-3.919 6.798-6.883 1.675-3.066 2.495-6.757 2.493-11.092.005-4.343-.816-7.993-2.5-11.013m-8.307 17.528c-.762 1.794-1.785 3.156-3.137 4.075-1.371.871-2.992 1.351-4.894 1.352-1.901 0-3.527-.475-4.889-1.357-1.363-.915-2.4-2.275-3.099-4.073-.753-1.736-1.079-3.907-1.084-6.514-.002-2.557.329-4.73 1.091-6.524.7-1.723 1.724-3.086 3.083-4.014 1.368-.92 3-1.36 4.902-1.36 1.901 0 3.516.433 4.881 1.365 1.356.924 2.392 2.284 3.153 4.011.707 1.79 1.075 3.966 1.077 6.523.005 2.608-.368 4.775-1.084 6.516m0 0" style="fill:#694432;fill-opacity:1;fill-rule:nonzero;stroke:none" aria-label="O" transform="rotate(48.758 37.365 1034.508)scale(1.33333)"/>
  <path d="M1.25-39.483 14.613-.002h12.702l13.299-39.471-10.692-.008-8.789 28.893-.332.003-8.857-28.89zm0 0" style="fill:#694432;fill-opacity:1;fill-rule:nonzero;stroke:none" aria-label="V" transform="rotate(58.587 86.548 922.111)scale(1.33333)"/>
  <path d="M30.519.001v-7.775l-17.98.004-.004-8.08 16.565-.008.01-7.77-16.565.007-.003-8.143 17.98-.004-.002-7.712-27.532-.007L2.986-.005zm0 0" style="fill:#694432;fill-opacity:1;fill-rule:nonzero;stroke:none" aria-label="E" transform="rotate(67.963 118.796 846.293)scale(1.33333)"/>
  <path d="M1503.85 17589c-16.43-16.5-32.67-33.3-49.35-49.5-9.06-8.9-8.65-16.8-.01-25.4 30.86-31 61.7-62 92.34-93.1 10.26-10.5 20.28-10.2 30.27-.4 32.34 31.9 64.51 64.1 96.79 96.1 9.48 9.3 8.07 19.7 0 27.9-31.93 32.3-64.53 64-96.98 95.8-8.36 8.2-15.95 6.7-23.88-1.7-16.07-16.9-32.74-33.2-49.18-49.7m5265.7-64.6c-14.92-17.9-29.62-36-44.81-53.7-8.25-9.6-7.14-17.4 2.22-25.3 33.47-28.1 66.91-56.3 100.17-84.6 11.14-9.5 21.1-8.4 30.18 2.3 29.42 34.6 58.63 69.5 87.97 104.2 8.62 10.2 6.31 20.4-2.46 27.8-34.64 29.4-69.89 58.1-105.02 86.9-9.04 7.4-16.48 5.3-23.64-3.7-14.52-18.3-29.69-36-44.61-53.9" style="fill:#694432;fill-opacity:1;fill-rule:nonzero;stroke:none" transform="matrix(.13333 0 0 -.13333 0 2875.467)"/>
  <path d="M2.678-35.439 2.681.003 11.261 0l-.004-35.442zm0 0" style="fill:#694432;fill-opacity:1;fill-rule:nonzero;stroke:none" aria-label="I" transform="rotate(74.981 -329.02 451.899)scale(1.33333)"/>
  <path d="m24.316-35.435-.005 20.428h-.29L10.047-35.436l-7.364-.007-.004 35.44L11.263 0l-.004-20.47.189-.002L25.585-.004l7.264.006.004-35.44zm0 0" style="fill:#694432;fill-opacity:1;fill-rule:nonzero;stroke:none" aria-label="N" transform="rotate(68.766 -396.026 484.763)scale(1.33333)"/>
  <path d="M12.283-28.503 12.28.003 20.724 0l.002-28.505 10.758.002.005-6.932-29.97-.009-.004 6.932zm0 0" style="fill:#694432;fill-opacity:1;fill-rule:nonzero;stroke:none" aria-label="T" transform="rotate(60.491 -516.305 554.3)scale(1.33333)"/>
  <path d="M27.387.003v-6.968H11.26l.002-7.26 14.865-.002v-6.968l-14.864.001-.005-7.31h16.128l-.002-6.926-24.701.004L2.686.007zm0 0" style="fill:#694432;fill-opacity:1;fill-rule:nonzero;stroke:none" aria-label="E" transform="rotate(52.855 -657.298 636.532)scale(1.33333)"/>
  <path d="M11.257-18.86v-9.687l4.176-.008c1.334 0 2.404.185 3.277.585.88.343 1.522.878 2.015 1.613.427.718.672 1.603.67 2.722-.001 1.069-.236 1.99-.671 2.68a4.47 4.47 0 0 1-2.013 1.57c-.868.329-1.944.517-3.278.517zM11.26.01l.003-12.14 4.342-.01L22.126.003l9.363-.006-7.406-13.447c1.95-.923 3.5-2.241 4.518-3.905 1.084-1.696 1.618-3.804 1.62-6.24s-.54-4.522-1.62-6.28c-1.013-1.81-2.521-3.118-4.433-4.1-1.945-.967-4.234-1.4-6.92-1.401l-14.617.004L2.635.052zm0 0" style="fill:#694432;fill-opacity:1;fill-rule:nonzero;stroke:none" aria-label="R" transform="matrix(.93717 .94842 -.94842 .93717 276.775 814.667)"/>
  <path d="M2.69-35.435 2.688-.001h8.573v-35.434Zm0 0" style="fill:#694432;fill-opacity:1;fill-rule:nonzero;stroke:none" aria-label="I" transform="rotate(39.564 -1025.127 860.382)scale(1.33333)"/>
  <path d="M33.882-27.636c-1.468-2.723-3.524-4.782-6.09-6.186-2.548-1.416-5.42-2.09-8.587-2.095-3.175 0-6.042.667-8.57 2.091-2.591 1.41-4.591 3.47-6.104 6.192-1.464 2.732-2.245 5.997-2.245 9.9 0 3.905.785 7.212 2.247 9.882 1.516 2.733 3.514 4.787 6.096 6.195C13.154-.253 16.03.487 19.205.487c3.166.006 6.03-.729 8.58-2.098 2.575-1.413 4.634-3.512 6.094-6.185 1.507-2.732 2.236-6.033 2.236-9.937s-.733-7.174-2.233-9.903m-7.473 15.744c-.67 1.612-1.601 2.821-2.819 3.657-1.224.784-2.687 1.221-4.387 1.21-1.703.006-3.178-.431-4.392-1.22-1.207-.822-2.138-2.034-2.781-3.643-.677-1.574-.963-3.514-.962-5.85.007-2.286.293-4.25.97-5.851.63-1.544 1.558-2.78 2.776-3.616 1.214-.82 2.694-1.211 4.397-1.217 1.7.011 3.158.403 4.382 1.228 1.207.821 2.14 2.06 2.824 3.6.634 1.616.975 3.576.968 5.86-.001 2.338-.342 4.281-.976 5.842m0 0" style="fill:#694432;fill-opacity:1;fill-rule:nonzero;stroke:none" aria-label="O" transform="rotate(33.111 -1292.23 994.554)scale(1.33333)"/>
  <path d="m11.266-18.878-.001-9.68 4.179.005c1.327-.002 2.4.176 3.268.578.875.334 1.512.88 2 1.61.438.728.686 1.606.684 2.729 0 1.07-.246 1.994-.678 2.682a4.35 4.35 0 0 1-2.009 1.552c-.872.348-1.937.527-3.264.53zM11.264-.006l.004-12.145h4.331L22.12-.003l9.37-.002-7.413-13.45c1.95-.92 3.516-2.23 4.532-3.894 1.075-1.705 1.618-3.81 1.623-6.248-.007-2.434-.544-4.534-1.623-6.27-1.019-1.801-2.53-3.132-4.433-4.104-1.943-.978-4.241-1.408-6.926-1.415l-14.604.002L2.642.052zm0 0" style="fill:#694432;fill-opacity:1;fill-rule:nonzero;stroke:none" aria-label="R" transform="rotate(24.619 -1869.049 1330.993)scale(1.33333)"/>
  <path d="M25.106-2.14c2.625-1.428 4.626-3.406 6.048-6.103 1.392-2.617 2.146-5.794 2.14-9.489.002-3.71-.748-6.831-2.144-9.524-1.424-2.613-3.416-4.671-6.038-6.086-2.643-1.399-5.71-2.095-9.31-2.098l-13.113.005L2.686.005l13.112-.006c3.601.004 6.706-.718 9.308-2.14m-13.85-25.988 4.093-.005c2.001.01 3.696.355 5.121.982 1.358.702 2.45 1.805 3.17 3.32.668 1.504 1.068 3.553 1.067 6.094.007 2.527-.4 4.574-1.066 6.14-.727 1.509-1.759 2.644-3.117 3.266-1.427.687-3.069 1.027-5.07 1.018l-4.19.003zm0 0" style="fill:#694432;fill-opacity:1;fill-rule:nonzero;stroke:none" aria-label="D" transform="rotate(13.3 -3750.857 2399.547)scale(1.33333)"/>
  <path d="m27.39-.002.006-6.968-16.125.006-.01-7.262 14.853-.004.006-6.968-14.854.004-.002-7.31 16.124-.005-.003-6.932-24.705-.002.004 35.44zm0 0" style="fill:#694432;fill-opacity:1;fill-rule:nonzero;stroke:none" aria-label="E" transform="matrix(1.3275 .1245 -.1245 1.3275 506.393 939.373)"/>
  <path d="M30.017-24.812c-.003-2.182-.589-4.126-1.711-5.844-1.113-1.647-2.66-2.97-4.666-3.898-2.054-.93-4.43-1.357-7.163-1.363-2.685-.003-5.128.436-7.225 1.356-2.086.933-3.694 2.258-4.914 3.867-1.173 1.646-1.76 3.607-1.758 5.788-.003 2.673.88 4.816 2.641 6.393 1.75 1.553 4.181 2.72 7.252 3.406l3.709.885c1.267.293 2.334.636 3.166.971.832.347 1.46.78 1.855 1.217.44.485.63 1.066.629 1.747-.002.691-.248 1.327-.68 1.91-.429.524-1.066.97-1.85 1.258-.834.345-1.813.485-2.985.478-1.266 0-2.327-.179-3.31-.578-.935-.386-1.7-.976-2.246-1.735-.536-.747-.83-1.719-.93-2.825l-8.185-.004c.063 2.782.696 5.056 1.92 6.86C4.78-3.122 6.49-1.758 8.674-.88S13.492.432 16.423.433c2.967.003 5.516-.432 7.598-1.26 2.108-.885 3.7-2.105 4.825-3.706 1.126-1.613 1.664-3.504 1.663-5.744a10.5 10.5 0 0 0-.693-3.848 8.8 8.8 0 0 0-2.094-3.031c-.93-.878-2.029-1.61-3.402-2.235-1.314-.634-2.877-1.171-4.634-1.563l-3.07-.687c-.77-.145-1.51-.394-2.148-.594a6.8 6.8 0 0 1-1.647-.822c-.494-.287-.833-.628-1.087-1.071a2.3 2.3 0 0 1-.29-1.36c0-.68.196-1.212.544-1.75.38-.479.923-.881 1.707-1.17.727-.301 1.658-.443 2.737-.44 1.7.004 2.966.343 3.89 1.068.877.689 1.415 1.705 1.51 2.963zm0 0" style="fill:#694432;fill-opacity:1;fill-rule:nonzero;stroke:none" aria-label="S" transform="rotate(-2.082 26259.275 -14809.132)scale(1.33333)"/>
  <path d="M2.684-35.438 2.685.003h8.577L11.26-35.44Zm0 0" style="fill:#694432;fill-opacity:1;fill-rule:nonzero;stroke:none" aria-label="I" transform="rotate(-7.849 7159.22 -3943.22)scale(1.33334)"/>
  <path d="M34.604-23.874a12.4 12.4 0 0 0-1.563-4.846c-.864-1.501-1.994-2.767-3.354-3.838a15.3 15.3 0 0 0-4.678-2.48c-1.809-.592-3.718-.883-5.75-.88-2.393-.002-4.583.385-6.632 1.22-2.047.774-3.845 1.998-5.41 3.547-1.57 1.56-2.733 3.478-3.602 5.76-.883 2.242-1.333 4.824-1.323 7.692-.002 3.772.731 6.98 2.131 9.705 1.483 2.734 3.48 4.825 6.012 6.278C13.011-.241 15.978.5 19.34.495c3.073-.006 5.76-.594 8.102-1.813 2.337-1.208 4.188-2.975 5.555-5.216 1.318-2.289 1.987-4.972 1.992-8.139v-4.715l-15.305-.003v6.239l7.026-.007c-.004 1.208-.292 2.296-.838 3.16-.518.994-1.353 1.664-2.48 2.2-1.065.528-2.374.777-3.994.776-1.742.006-3.253-.426-4.54-1.26-1.202-.837-2.187-2.055-2.83-3.668-.673-1.586-.962-3.545-.962-5.83 0-2.237.339-4.194 1.015-5.764.637-1.603 1.624-2.78 2.887-3.656 1.262-.828 2.735-1.204 4.43-1.21a9 9 0 0 1 2.391.293 6.8 6.8 0 0 1 1.896.868c.53.389 1.034.88 1.416 1.472a7.2 7.2 0 0 1 .834 1.904zm0 0" style="fill:#694432;fill-opacity:1;fill-rule:nonzero;stroke:none" aria-label="G" transform="rotate(-14.239 4068.52 -2061.15)scale(1.33333)"/>
  <path d="m24.318-35.44.004 20.426-.294.002-13.986-20.421-7.357-.007.003 35.437h8.569l.004-20.473.19.004L25.58-.002l7.268.008-.003-35.437zm0 0" style="fill:#694432;fill-opacity:1;fill-rule:nonzero;stroke:none" aria-label="N" transform="matrix(1.2271 -.52152 .52152 1.2271 689.075 922.053)"/>
  <path d="M30.022-24.81c.006-2.194-.59-4.13-1.706-5.842-1.115-1.652-2.674-2.985-4.67-3.905-2.065-.925-4.443-1.368-7.167-1.366-2.681.002-5.12.439-7.213 1.367-2.103.921-3.706 2.254-4.928 3.86-1.173 1.64-1.755 3.597-1.761 5.791.008 2.672.88 4.826 2.643 6.381 1.755 1.565 4.194 2.73 7.26 3.415l3.699.876c1.28.305 2.347.635 3.169.968.842.346 1.465.785 1.86 1.225.437.482.633 1.069.636 1.751-.004.693-.264 1.324-.693 1.911-.43.529-1.072.97-1.852 1.262-.83.343-1.8.476-2.979.48-1.258-.006-2.329-.183-3.316-.586-.916-.383-1.703-.976-2.245-1.742-.528-.743-.82-1.708-.914-2.82l-8.187.008c.06 2.763.686 5.048 1.907 6.858 1.217 1.793 2.919 3.166 5.117 4.04 2.182.876 4.82 1.313 7.749 1.323C19.398.439 21.938 0 24.023-.835c2.102-.878 3.7-2.1 4.832-3.698 1.121-1.604 1.664-3.503 1.667-5.756a10.9 10.9 0 0 0-.696-3.849 8.9 8.9 0 0 0-2.098-3.018c-.927-.887-2.042-1.603-3.41-2.238-1.317-.628-2.878-1.167-4.632-1.568l-3.072-.674c-.778-.148-1.51-.406-2.136-.59a7 7 0 0 1-1.659-.833c-.5-.285-.835-.626-1.071-1.07a2.34 2.34 0 0 1-.308-1.36c.007-.675.207-1.22.544-1.756.398-.48.932-.868 1.718-1.169.718-.304 1.662-.441 2.735-.434 1.694-.008 2.964.333 3.88 1.07.887.675 1.42 1.704 1.517 2.976zm0 0" style="fill:#694432;fill-opacity:1;fill-rule:nonzero;stroke:none" aria-label="S" transform="matrix(1.10188 -.75076 .75076 1.10188 758.355 889.24)"/>
  <path d="M12.29-28.509 12.288 0l8.43.005v-28.509l10.77.002.006-6.928H1.518l-.006 6.928zm0 0" style="fill:#694432;fill-opacity:1;fill-rule:nonzero;stroke:none" aria-label="T" transform="matrix(.98927 -.89394 .89394 .98927 800.761 859.653)"/>
  <path d="M24.128-13.304a6.7 6.7 0 0 1-.825 3.261c-.552.931-1.273 1.713-2.238 2.257-.98.525-2.114.812-3.379.812s-2.387-.287-3.354-.808a6.04 6.04 0 0 1-2.296-2.267c-.526-.964-.777-2.036-.773-3.259v-22.127H2.685l-.001 22.86c-.002 2.637.636 4.926 1.847 6.86C5.806-3.758 7.556-2.24 9.796-1.177c2.239 1.08 4.87 1.605 7.89 1.61 2.971-.002 5.615-.524 7.854-1.607 2.244-1.058 3.999-2.577 5.253-4.534 1.285-1.937 1.87-4.221 1.872-6.86v-22.858l-8.537-.005zm0 0" style="fill:#694432;fill-opacity:1;fill-rule:nonzero;stroke:none" aria-label="U" transform="rotate(-50.265 1297.805 -483.094)scale(1.33333)"/>
  <path d="M25.108-2.136c2.617-1.425 4.63-3.415 6.04-6.107 1.415-2.614 2.142-5.797 2.143-9.5 0-3.701-.729-6.823-2.138-9.505-1.414-2.623-3.422-4.666-6.052-6.086-2.625-1.41-5.705-2.102-9.307-2.096l-13.11-.006L2.689 0l13.11.007c3.601-.007 6.713-.73 9.31-2.143M11.252-28.121l4.096-.005c2.004.004 3.704.343 5.118.978 1.366.693 2.441 1.808 3.175 3.31.687 1.516 1.075 3.556 1.078 6.09-.003 2.524-.396 4.586-1.077 6.152-.728 1.51-1.761 2.631-3.118 3.264-1.422.684-3.066 1.024-5.07 1.02l-4.19.008zm0 0" style="fill:#694432;fill-opacity:1;fill-rule:nonzero;stroke:none" aria-label="D" transform="rotate(-58.738 1130.634 -387.556)scale(1.33333)"/>
  <path d="M2.675-35.434 2.68 0l8.577-.002-.005-35.434zm0 0" style="fill:#694432;fill-opacity:1;fill-rule:nonzero;stroke:none" aria-label="I" transform="matrix(.565 -1.2077 1.2077 .565 902.88 732.08)"/>
  <path d="M33.881-27.626c-1.473-2.731-3.523-4.788-6.097-6.198-2.542-1.422-5.415-2.101-8.58-2.102-3.176.003-6.04.68-8.575 2.111-2.595 1.402-4.588 3.456-6.094 6.186-1.473 2.72-2.245 5.982-2.244 9.888-.003 3.895.778 7.218 2.243 9.89 1.51 2.732 3.497 4.785 6.098 6.199C13.166-.253 16.036.49 19.212.487c3.164 0 6.031-.739 8.578-2.1 2.565-1.417 4.621-3.504 6.098-6.175 1.492-2.738 2.234-6.053 2.237-9.948 0-3.906-.752-7.176-2.244-9.89m-7.465 15.732c-.682 1.613-1.61 2.827-2.827 3.656-1.222.78-2.68 1.22-4.378 1.21-1.716.007-3.184-.428-4.398-1.207-1.22-.839-2.146-2.049-2.772-3.656-.685-1.562-.981-3.514-.975-5.853 0-2.286.292-4.251.97-5.838.638-1.562 1.562-2.787 2.768-3.612 1.23-.832 2.692-1.225 4.408-1.232 1.697.012 3.162.398 4.368 1.23 1.232.834 2.16 2.055 2.831 3.61.633 1.592.986 3.563.987 5.85-.007 2.338-.355 4.284-.982 5.842m0 0" style="fill:#694432;fill-opacity:1;fill-rule:nonzero;stroke:none" aria-label="O" transform="rotate(-71.448 949.58 -281.805)scale(1.33333)"/>
  <path d="M3407.97 17854.3c-18.24-1.4-36.65-.8-54.99-.8-201.73 0-403.46.1-605.19 0-31.03 0-41.99-11.2-42.15-41.5-.14-28.4-.56-56.7.1-85.1.88-37.7-1.36-75.4-5.87-113.6 3.62.6 4.78.5 5.04 1 60.31 101.1 156.36 128.6 265.66 129.1 19.05.1 26.92-7.8 25.43-27.4-2.02-26.5-2.68-53.2-3.07-79.9-3.05-205.9-.57-411.8 2.83-617.6.59-35.4-7.64-69.2-22.16-100.9-16.34-35.6-39.73-66.2-81.44-73.8-17.06-3.1-33.23-5.4-30.87-26.7 2.13-19.2 18.32-23.9 35.19-23.9 129.2-.2 258.4-.1 387.6-.3 17.63 0 30.07 7 37.62 23.2 8.6 18.5 4.71 26.4-15.72 26.6-18.47.2-34.97 6.3-48.3 17.4-35.9 29.8-59.13 69.1-61 115.3-3.19 79-4.33 158.2-1.49 237.4.12 3.3.5 6.4 1.04 9.5v238.5c-.2 1.4-.34 2.8-.39 4.3-3.04 81.6-5.96 163.2-5.47 245 .12 21 8.32 28.5 27.85 28.3 32.51-.2 65.02.3 97.53.2 21.78-.1 40.34 7.1 56.32 22.1 22.19 20.9 37.53 45.9 49.13 73.9 6.28 15.1 4.76 21.1-13.23 19.7" style="fill:#694432;fill-opacity:1;fill-rule:nonzero;stroke:none" transform="matrix(.13333 0 0 -.13333 0 2875.467)"/>
  <path d="M3796.38 17844.7c-11.07 145.2-77.91 260-186.42 352.9-104.05 89.1-229.41 122.9-362.1 133.5-96.99 7.7-194.38 10.4-291.58 15.5-51.83 2.7-61-5.1-56.56-56.1 7.63-87.6 46.47-161.5 105.94-224.7 15.34-16.3 34.41-29.4 60.13-33.4-1.04 7.2-1.92 12-2.42 16.8-9.52 92.1 30.68 144.2 110.71 156.5 107.64 16.6 201.13-18.4 281.09-90.8 107.09-97 149.68-224.8 164.68-362.5 10.94-100.4 3.81-201.7 1.29-302.6 1.08-3.3 1.68-6.9 1.68-10.9v-274.2c0-3.5-.5-6.8-1.34-9.7.23-85.4-1.11-170.7-15.18-255.6-21.2-128-70.39-241.4-168.82-329-60.7-54-130.83-91.3-213.17-97.3-81.09-5.9-141.45 19.8-165.66 105.2-6.61 23.3-1.85 47.3-1.21 73.3-25.51-8.4-47.64-18.7-65.34-36.9-68.87-70.7-96.61-156.5-93.39-253.8.97-29.1 5.95-34.8 35.78-35.2 95.75-1.5 191.1 2.4 285.57 20 117.27 21.9 229.05 57.8 329.69 124 99.93 65.7 175.67 148.4 213.08 266.1 29.65 93.4 41.85 188.7 41.7 284.3-.42 274.9 12.8 549.9-8.15 824.6m1600.11-1196.2c.59-11.6 1.36-21.5 1.54-31.4.81-45.9-14.49-85.5-51.94-112.9-50.1-36.6-109.9-46.5-166.15-28.6-126.32 40.2-220.76 122.1-278.43 243-41.39 86.7-63.24 178.5-71.09 274.4-6.81 83.2-9.55 166.3-8.75 249.6.05 4.5.33 8.7.81 12.6v165.9c-.72 3.4-1.05 7.2-.94 11.3 3.08 120.6-6.92 241.4 9.54 361.8 13.01 95.2 42.61 183.4 99.87 261 73.14 99.1 164.82 164.6 294.89 161.8 79.05-1.7 177.81-66.8 161.81-167.8-2.33-14.7 5.22-18.6 17.43-11.6 13.7 7.8 26.94 16.4 38.18 27.8 68.73 69.6 90.6 157.5 98.84 251 2.09 23.8-5.81 32.3-30.38 31.9-91.56-1.2-183.18-1.6-274.23-12.2-69.73-8.1-140.09-13.6-207.66-34.6-158.14-49.3-276.2-145.3-340.81-299.9-38.85-93.1-50.68-192.8-51.49-292.2-1.94-235.8-6.77-471.7-.3-707.6 2-72.8 10.92-145.6 29.59-216.4 22.24-84.4 56.75-163.8 119.63-225.7 61.15-60.2 131.32-109.5 209.79-145.6 167.63-77.3 345.31-95.1 527.05-88.3 18.61.7 23.55 13.5 23.47 28.8-.36 67.8-11.15 133.6-41.9 194.8-23.08 45.9-57.21 80.6-108.37 99.1" style="fill:#694432;fill-opacity:1;fill-rule:nonzero;stroke:none" transform="matrix(.13333 0 0 -.13333 0 2875.467)"/>
  <path d="M4915.85 16257.4c59.17-20.4 112.45-39.6 148.3-88.9 42.61-58.7 38.11-184.2-49.57-246.2-50.32-35.6-106.12-54.3-165.78-61.1-168.44-19.5-327.97 11.5-478.1 90.2-47.09 24.6-90.21 55.8-134.5 85-15.98 10.5-28.4 11.9-44.47-1-75.62-60.2-157.23-111.6-249.61-141.1-143.88-46-289.75-61.3-437.21-13.8-109.79 35.4-168.13 131.5-144.18 238.9 13.87 62.2 96.69 129.8 153.6 124.7-14.6-27.7-23.2-56.4-20.27-88.2 5.44-58.9 37.36-100.1 90.1-121.1 130.82-52.1 262.76-59.1 391.96 5.7 62.28 31.3 112.93 75.9 136.17 144.7 4.72 13.9 8.33 29 8.57 43.6 2.27 135.8 5.23 271.6 4.77 407.5-.28 84-3.21 168.3-10.47 252-5.21 60.1-27.77 115.8-69.08 162-10.64 11.9-22.27 22.7-38.76 25.5-6.59 1.1-11.73 2.7-10.56 10.4 1 6.7 5.99 9.6 12.31 10.1 4.97.4 9.98.4 14.98.4 132.54.2 265.07.3 397.61.4 4.97 0 9.99-.2 14.92-.8 5.39-.7 9.4-3.3 9.45-9.5.05-5.7-2.51-9.2-8.34-10.5-50.49-11.3-70.88-51.2-86.05-94-20.92-59.1-29.59-120.9-29.98-183.3-.94-150.8-1.08-301.7.2-452.6.4-46.4 3.43-93.3 10.58-139.2 10.14-65 47.72-114.5 102.58-149.3 89.2-56.5 187.4-70.9 291.17-58.9 41.39 4.8 81 14.4 120.26 28 104.75 36.4 129.41 148.2 69.4 230.4m-1390.71 2194.9c-60.05 11.7-110.14 37.7-141.53 87.3-47.1 74.5-41.61 133.7 22.96 210.2 42.29 50.1 102.27 65.7 162.94 76.3 61.36 10.7 123.33 15.3 186.11 11.5 134.54-8.3 259.93-45.5 376.01-113.7 30.69-18 62.31-35 88.94-59.2 12.43-11.3 21.06-2.7 30.33 4.1 70.58 51.2 143.56 98.3 227.63 124.7 142.57 44.8 287.29 58.3 433.79 22.8 58.05-14.1 109.42-41 145.59-92.5 51.84-73.9 35.71-174.7-37.7-227.4-27.74-19.9-59.4-30.7-92.84-48.2 41.94 84.3 27.09 198.6-107.8 233.9-79.76 20.9-159.92 15.7-240.32 11.6-63.03-3.1-121.66-21.9-175.95-54.3-51.85-30.9-76.31-78.3-76.61-136.7-1.02-202.5-.88-405-.02-607.6.25-58 1.03-116.7 30.21-169.7 21.06-38.2 44.88-74.4 89.62-89 14.17-4.6 11.56-11.1 3.24-19.5-6.81-6.8-15.15-5.8-23.37-5.8-132.51.2-265.03.3-397.54.6-6.06 0-14.24-3.3-17.02 5.7-2.37 7.7 3.69 12.4 8.55 16.7 73.66 64.8 101.88 147.8 101.24 244.1-1.25 189.2-.66 378.4-1.3 567.6-.11 30.8-1.51 61.7-4.48 92.3-2.33 24.1-17.11 43.1-33.49 59.7-56.36 57-126.89 86.6-204.63 98.2-88.73 13.3-176.99 8.9-264.13-14.7-94.25-25.6-159.63-120.5-88.43-229m821.22-1100.7c.04-33.3-.35-66.6.19-99.9.29-18.1-8.07-25.6-25.53-25.6-62.42.2-124.83.3-187.25 0-20.89-.1-30.82 10.3-31.03 30.3-.67 64.9-.97 129.8-1.51 194.7-.16 19.1 11.72 28.1 28.13 28.2 64.88.1 129.76-1.1 194.63-2 16.7-.2 22.89-9.5 22.54-25.9-.7-33.3-.21-66.6-.17-99.8m687.24 502.7c18.24-1.4 36.65-.8 54.98-.8 201.73 0 403.46.1 605.19 0 31.03 0 42-11.2 42.15-41.5.15-28.4.57-56.7-.1-85.1-.88-37.7 1.36-75.4 5.88-113.6-3.62.6-4.79.5-5.04 1-60.32 101.1-156.36 128.6-265.67 129.1-19.05.1-26.91-7.8-25.43-27.4 2.02-26.5 2.68-53.2 3.08-79.9 3.04-205.9.56-411.8-2.84-617.6-.58-35.4 7.64-69.2 22.16-100.9 16.34-35.6 39.74-66.2 81.45-73.8 17.05-3.1 33.22-5.4 30.87-26.7-2.14-19.2-18.32-23.9-35.19-23.9-129.2-.2-258.41-.1-387.61-.3-17.62 0-30.07 7-37.62 23.2-8.6 18.5-4.7 26.4 15.72 26.6 18.47.2 34.97 6.3 48.3 17.4 35.9 29.8 59.14 69.1 61 115.3 3.19 79 4.33 158.2 1.49 237.4-.12 3.3-.5 6.4-1.03 9.5v238.5c.2 1.4.33 2.8.39 4.3 3.03 81.6 5.96 163.2 5.47 245-.13 21-8.33 28.5-27.86 28.3-32.5-.2-65.01.3-97.52.2-21.79-.1-40.35 7.1-56.32 22.1-22.19 20.9-37.54 45.9-49.13 73.9-6.28 15.1-4.77 21.1 13.23 19.7" style="fill:#694432;fill-opacity:1;fill-rule:nonzero;stroke:none" transform="matrix(.13333 0 0 -.13333 0 2875.467)"/>
  <path d="M4220.78 19544.2c-1212.54 0-2199.01-986.4-2199.01-2199 0-1212.5 986.47-2199 2199.01-2199 1212.55 0 2199.02 986.5 2199.02 2199 0 1212.6-986.47 2199-2199.02 2199m0-4439.8c-1235.57 0-2240.79 1005.3-2240.79 2240.8 0 1235.6 1005.22 2240.8 2240.79 2240.8 1235.58 0 2240.8-1005.2 2240.8-2240.8 0-1235.5-1005.22-2240.8-2240.8-2240.8" style="fill:#694432;fill-opacity:1;fill-rule:nonzero;stroke:none" transform="matrix(.13333 0 0 -.13333 0 2875.467)"/>
  <path d="M4220.78 20485.8c-1731.69 0-3140.52-1408.9-3140.52-3140.6s1408.83-3140.5 3140.52-3140.5c1731.7 0 3140.53 1408.8 3140.53 3140.5s-1408.83 3140.6-3140.53 3140.6m0-6322.9c-850.02 0-1649.16 331-2250.22 932.1-601.05 601.1-932.07 1400.2-932.07 2250.2s331.02 1649.2 932.07 2250.2c601.06 601.1 1400.2 932.1 2250.22 932.1s1649.17-331 2250.23-932.1c601.05-601 932.07-1400.1 932.07-2250.2 0-850-331.02-1649.1-932.07-2250.2-601.06-601.1-1400.21-932.1-2250.23-932.1" style="fill:#694432;fill-opacity:1;fill-rule:nonzero;stroke:none" transform="matrix(.13333 0 0 -.13333 0 2875.467)"/>
  <path d="M4220.78 21377.3c-2223.31 0-4032.096-1808.8-4032.096-4032.1s1808.786-4032.1 4032.096-4032.1 4032.09 1808.8 4032.09 4032.1-1808.78 4032.1-4032.09 4032.1m0-8119.9c-1091.89 0-2118.42 425.2-2890.5 1197.3-772.092 772.1-1197.296 1798.6-1197.296 2890.5s425.204 2118.5 1197.296 2890.5c772.08 772.1 1798.61 1197.3 2890.5 1197.3 1091.9 0 2118.43-425.2 2890.51-1197.3 772.08-772 1197.28-1798.6 1197.28-2890.5s-425.2-2118.4-1197.28-2890.5-1798.61-1197.3-2890.51-1197.3" style="fill:#694432;fill-opacity:1;fill-rule:nonzero;stroke:none" transform="matrix(.13333 0 0 -.13333 0 2875.467)"/>
  <path d="M4220.78 21482.5c-2281.28 0-4137.237-1856-4137.237-4137.3S1939.5 13208 4220.78 13208s4137.23 1855.9 4137.23 4137.2-1855.95 4137.3-4137.23 4137.3m0-8358.1c-1127.42 0-2187.35 439.1-2984.54 1236.3C439.043 15157.9 0 16217.8 0 17345.2s439.043 2187.4 1236.24 2984.6C2033.43 21127 3093.36 21566 4220.78 21566c1127.41 0 2187.34-439 2984.54-1236.2 797.19-797.2 1236.24-1857.2 1236.24-2984.6s-439.05-2187.3-1236.24-2984.5c-797.2-797.2-1857.13-1236.3-2984.54-1236.3" style="fill:#694432;fill-opacity:1;fill-rule:nonzero;stroke:none" transform="matrix(.13333 0 0 -.13333 0 2875.467)"/>
</svg>
